{
	"patcher" : 	{
		"fileversion" : 1,
		"appversion" : 		{
			"major" : 7,
			"minor" : 2,
			"revision" : 4,
			"architecture" : "x64",
			"modernui" : 1
		}
,
		"rect" : [ 38.0, 79.0, 1082.0, 416.0 ],
		"bglocked" : 0,
		"openinpresentation" : 1,
		"default_fontsize" : 12.0,
		"default_fontface" : 0,
		"default_fontname" : "Arial",
		"gridonopen" : 1,
		"gridsize" : [ 15.0, 15.0 ],
		"gridsnaponopen" : 1,
		"objectsnaponopen" : 1,
		"statusbarvisible" : 2,
		"toolbarvisible" : 0,
		"lefttoolbarpinned" : 0,
		"toptoolbarpinned" : 0,
		"righttoolbarpinned" : 0,
		"bottomtoolbarpinned" : 0,
		"toolbars_unpinned_last_save" : 0,
		"tallnewobj" : 0,
		"boxanimatetime" : 300,
		"enablehscroll" : 1,
		"enablevscroll" : 1,
		"devicewidth" : 0.0,
		"description" : "",
		"digest" : "",
		"tags" : "",
		"style" : "",
		"subpatcher_template" : "",
		"boxes" : [ 			{
				"box" : 				{
					"id" : "obj-61",
					"maxclass" : "message",
					"numinlets" : 2,
					"numoutlets" : 1,
					"outlettype" : [ "" ],
					"patching_rect" : [ 831.5, 215.209457, 29.5, 22.0 ],
					"style" : "",
					"text" : "1 0"
				}

			}
, 			{
				"box" : 				{
					"id" : "obj-59",
					"maxclass" : "newobj",
					"numinlets" : 1,
					"numoutlets" : 0,
					"patching_rect" : [ 831.5, 246.209457, 36.0, 22.0 ],
					"style" : "",
					"text" : "s Go"
				}

			}
, 			{
				"box" : 				{
					"id" : "obj-58",
					"maxclass" : "newobj",
					"numinlets" : 1,
					"numoutlets" : 0,
					"patching_rect" : [ 1223.0, 947.06665, 50.0, 22.0 ],
					"style" : "",
					"text" : "s Play7"
				}

			}
, 			{
				"box" : 				{
					"id" : "obj-57",
					"maxclass" : "newobj",
					"numinlets" : 1,
					"numoutlets" : 0,
					"patching_rect" : [ 1166.0, 947.06665, 50.0, 22.0 ],
					"style" : "",
					"text" : "s Play6"
				}

			}
, 			{
				"box" : 				{
					"id" : "obj-56",
					"maxclass" : "newobj",
					"numinlets" : 1,
					"numoutlets" : 0,
					"patching_rect" : [ 1109.0, 947.06665, 50.0, 22.0 ],
					"style" : "",
					"text" : "s Play5"
				}

			}
, 			{
				"box" : 				{
					"id" : "obj-55",
					"maxclass" : "newobj",
					"numinlets" : 1,
					"numoutlets" : 0,
					"patching_rect" : [ 1052.0, 947.06665, 50.0, 22.0 ],
					"style" : "",
					"text" : "s Play4"
				}

			}
, 			{
				"box" : 				{
					"id" : "obj-54",
					"maxclass" : "newobj",
					"numinlets" : 1,
					"numoutlets" : 0,
					"patching_rect" : [ 995.0, 947.06665, 50.0, 22.0 ],
					"style" : "",
					"text" : "s Play3"
				}

			}
, 			{
				"box" : 				{
					"id" : "obj-53",
					"maxclass" : "newobj",
					"numinlets" : 1,
					"numoutlets" : 0,
					"patching_rect" : [ 938.0, 947.06665, 50.0, 22.0 ],
					"style" : "",
					"text" : "s Play2"
				}

			}
, 			{
				"box" : 				{
					"id" : "obj-46",
					"maxclass" : "newobj",
					"numinlets" : 1,
					"numoutlets" : 0,
					"patching_rect" : [ 881.0, 947.06665, 50.0, 22.0 ],
					"style" : "",
					"text" : "s Play1"
				}

			}
, 			{
				"box" : 				{
					"id" : "obj-38",
					"maxclass" : "newobj",
					"numinlets" : 1,
					"numoutlets" : 1,
					"outlettype" : [ "int" ],
					"patching_rect" : [ 881.0, 898.044373, 24.0, 22.0 ],
					"style" : "",
					"text" : "t 0"
				}

			}
, 			{
				"box" : 				{
					"id" : "obj-1",
					"maxclass" : "newobj",
					"numinlets" : 0,
					"numoutlets" : 1,
					"outlettype" : [ "" ],
					"patching_rect" : [ 881.0, 865.044373, 60.0, 22.0 ],
					"style" : "",
					"text" : "r NewSet"
				}

			}
, 			{
				"box" : 				{
					"id" : "obj-2",
					"maxclass" : "newobj",
					"numinlets" : 0,
					"numoutlets" : 0,
					"patcher" : 					{
						"fileversion" : 1,
						"appversion" : 						{
							"major" : 7,
							"minor" : 2,
							"revision" : 4,
							"architecture" : "x64",
							"modernui" : 1
						}
,
						"rect" : [ 774.0, 449.0, 335.0, 302.0 ],
						"bglocked" : 0,
						"openinpresentation" : 0,
						"default_fontsize" : 12.0,
						"default_fontface" : 0,
						"default_fontname" : "Arial",
						"gridonopen" : 1,
						"gridsize" : [ 15.0, 15.0 ],
						"gridsnaponopen" : 1,
						"objectsnaponopen" : 1,
						"statusbarvisible" : 2,
						"toolbarvisible" : 1,
						"lefttoolbarpinned" : 0,
						"toptoolbarpinned" : 0,
						"righttoolbarpinned" : 0,
						"bottomtoolbarpinned" : 0,
						"toolbars_unpinned_last_save" : 0,
						"tallnewobj" : 0,
						"boxanimatetime" : 200,
						"enablehscroll" : 1,
						"enablevscroll" : 1,
						"devicewidth" : 0.0,
						"description" : "",
						"digest" : "",
						"tags" : "",
						"style" : "",
						"subpatcher_template" : "",
						"boxes" : [ 							{
								"box" : 								{
									"id" : "obj-10",
									"maxclass" : "message",
									"numinlets" : 2,
									"numoutlets" : 1,
									"outlettype" : [ "" ],
									"patching_rect" : [ 274.0, 200.0, 37.0, 22.0 ],
									"style" : "",
									"text" : "clear"
								}

							}
, 							{
								"box" : 								{
									"id" : "obj-2",
									"maxclass" : "newobj",
									"numinlets" : 0,
									"numoutlets" : 1,
									"outlettype" : [ "" ],
									"patching_rect" : [ 111.061295, 261.012268, 46.0, 22.0 ],
									"style" : "",
									"text" : "r COM"
								}

							}
, 							{
								"box" : 								{
									"fontname" : "Arial",
									"fontsize" : 12.0,
									"id" : "obj-1",
									"maxclass" : "newobj",
									"numinlets" : 0,
									"numoutlets" : 1,
									"outlettype" : [ "" ],
									"patching_rect" : [ 26.530655, 17.0, 56.0, 22.0 ],
									"style" : "",
									"text" : "r Reload"
								}

							}
, 							{
								"box" : 								{
									"fontname" : "Arial",
									"fontsize" : 12.0,
									"id" : "obj-17",
									"maxclass" : "newobj",
									"numinlets" : 2,
									"numoutlets" : 1,
									"outlettype" : [ "bang" ],
									"patching_rect" : [ 26.530655, 144.0, 50.0, 22.0 ],
									"style" : "",
									"text" : "del 300"
								}

							}
, 							{
								"box" : 								{
									"fontname" : "Arial",
									"fontsize" : 12.0,
									"id" : "obj-41",
									"maxclass" : "message",
									"numinlets" : 2,
									"numoutlets" : 1,
									"outlettype" : [ "" ],
									"patching_rect" : [ 111.061295, 200.0, 153.0, 22.0 ],
									"style" : "",
									"text" : "clear, read patchA-cues.txt"
								}

							}
, 							{
								"box" : 								{
									"fontname" : "Arial",
									"fontsize" : 12.0,
									"id" : "obj-42",
									"maxclass" : "newobj",
									"numinlets" : 1,
									"numoutlets" : 1,
									"outlettype" : [ "bang" ],
									"patching_rect" : [ 26.530655, 64.0, 58.0, 22.0 ],
									"style" : "",
									"text" : "loadbang"
								}

							}
, 							{
								"box" : 								{
									"fontname" : "Arial",
									"fontsize" : 12.0,
									"id" : "obj-43",
									"maxclass" : "newobj",
									"numinlets" : 0,
									"numoutlets" : 1,
									"outlettype" : [ "" ],
									"patching_rect" : [ 26.530655, 200.0, 27.0, 22.0 ],
									"style" : "",
									"text" : "r Q"
								}

							}
, 							{
								"box" : 								{
									"fontname" : "Arial",
									"fontsize" : 12.0,
									"id" : "obj-47",
									"maxclass" : "newobj",
									"numinlets" : 1,
									"numoutlets" : 1,
									"outlettype" : [ "" ],
									"patcher" : 									{
										"fileversion" : 1,
										"appversion" : 										{
											"major" : 7,
											"minor" : 2,
											"revision" : 4,
											"architecture" : "x64",
											"modernui" : 1
										}
,
										"rect" : [ 810.0, 122.0, 399.0, 636.0 ],
										"bglocked" : 0,
										"openinpresentation" : 0,
										"default_fontsize" : 12.0,
										"default_fontface" : 0,
										"default_fontname" : "Arial",
										"gridonopen" : 1,
										"gridsize" : [ 15.0, 15.0 ],
										"gridsnaponopen" : 1,
										"objectsnaponopen" : 1,
										"statusbarvisible" : 2,
										"toolbarvisible" : 1,
										"lefttoolbarpinned" : 0,
										"toptoolbarpinned" : 0,
										"righttoolbarpinned" : 0,
										"bottomtoolbarpinned" : 0,
										"toolbars_unpinned_last_save" : 0,
										"tallnewobj" : 0,
										"boxanimatetime" : 200,
										"enablehscroll" : 1,
										"enablevscroll" : 1,
										"devicewidth" : 0.0,
										"description" : "",
										"digest" : "",
										"tags" : "",
										"style" : "",
										"subpatcher_template" : "",
										"boxes" : [ 											{
												"box" : 												{
													"comment" : "",
													"id" : "obj-28",
													"maxclass" : "inlet",
													"numinlets" : 0,
													"numoutlets" : 1,
													"outlettype" : [ "" ],
													"patching_rect" : [ 32.75, 188.75, 30.0, 30.0 ],
													"style" : ""
												}

											}
, 											{
												"box" : 												{
													"fontname" : "Arial",
													"fontsize" : 12.0,
													"id" : "obj-1",
													"linecount" : 3,
													"maxclass" : "comment",
													"numinlets" : 1,
													"numoutlets" : 0,
													"patching_rect" : [ 253.25, 234.25, 141.0, 47.0 ],
													"style" : "",
													"text" : "GoGo cuenum - go now to cue, regardless of halt/resume state"
												}

											}
, 											{
												"box" : 												{
													"fontname" : "Arial",
													"fontsize" : 12.0,
													"id" : "obj-2",
													"maxclass" : "newobj",
													"numinlets" : 0,
													"numoutlets" : 1,
													"outlettype" : [ "" ],
													"patching_rect" : [ 239.0, 188.75, 48.0, 22.0 ],
													"style" : "",
													"text" : "r GoGo"
												}

											}
, 											{
												"box" : 												{
													"fontname" : "Arial",
													"fontsize" : 12.0,
													"id" : "obj-3",
													"maxclass" : "newobj",
													"numinlets" : 0,
													"numoutlets" : 1,
													"outlettype" : [ "" ],
													"patching_rect" : [ 84.0, 188.75, 34.0, 22.0 ],
													"style" : "",
													"text" : "r Go"
												}

											}
, 											{
												"box" : 												{
													"fontname" : "Arial",
													"fontsize" : 12.0,
													"id" : "obj-4",
													"maxclass" : "comment",
													"numinlets" : 1,
													"numoutlets" : 0,
													"patching_rect" : [ 48.75, 143.75, 280.0, 20.0 ],
													"style" : "",
													"text" : "Cancel any delayed cue that is pending."
												}

											}
, 											{
												"box" : 												{
													"fontname" : "Arial",
													"fontsize" : 12.0,
													"id" : "obj-5",
													"maxclass" : "comment",
													"numinlets" : 1,
													"numoutlets" : 0,
													"patching_rect" : [ 42.75, 128.75, 298.0, 20.0 ],
													"style" : "",
													"text" : "- clear"
												}

											}
, 											{
												"box" : 												{
													"fontname" : "Arial",
													"fontsize" : 12.0,
													"id" : "obj-6",
													"maxclass" : "comment",
													"numinlets" : 1,
													"numoutlets" : 0,
													"patching_rect" : [ 42.75, 53.75, 42.0, 20.0 ],
													"style" : "",
													"text" : "- halt"
												}

											}
, 											{
												"box" : 												{
													"fontname" : "Arial",
													"fontsize" : 12.0,
													"id" : "obj-7",
													"maxclass" : "comment",
													"numinlets" : 1,
													"numoutlets" : 0,
													"patching_rect" : [ 42.75, 38.75, 172.0, 20.0 ],
													"style" : "",
													"text" : "- cuenum delay-til-cue [msec]"
												}

											}
, 											{
												"box" : 												{
													"fontname" : "Arial",
													"fontsize" : 12.0,
													"id" : "obj-8",
													"maxclass" : "message",
													"numinlets" : 2,
													"numoutlets" : 1,
													"outlettype" : [ "" ],
													"patching_rect" : [ 19.0, 540.5, 75.0, 22.0 ],
													"style" : "",
													"text" : "rewind, next"
												}

											}
, 											{
												"box" : 												{
													"fontname" : "Arial",
													"fontsize" : 12.0,
													"id" : "obj-9",
													"maxclass" : "newobj",
													"numinlets" : 2,
													"numoutlets" : 2,
													"outlettype" : [ "bang", "" ],
													"patching_rect" : [ 84.0, 504.25, 36.0, 22.0 ],
													"style" : "",
													"text" : "sel 0"
												}

											}
, 											{
												"box" : 												{
													"fontname" : "Arial",
													"fontsize" : 12.0,
													"id" : "obj-10",
													"maxclass" : "newobj",
													"numinlets" : 2,
													"numoutlets" : 1,
													"outlettype" : [ "int" ],
													"patching_rect" : [ 121.75, 291.75, 32.5, 22.0 ],
													"style" : "",
													"text" : "i 1"
												}

											}
, 											{
												"box" : 												{
													"fontname" : "Arial",
													"fontsize" : 12.0,
													"id" : "obj-11",
													"maxclass" : "newobj",
													"numinlets" : 2,
													"numoutlets" : 1,
													"outlettype" : [ "int" ],
													"patching_rect" : [ 84.0, 291.75, 32.5, 22.0 ],
													"style" : "",
													"text" : "i 0"
												}

											}
, 											{
												"box" : 												{
													"fontname" : "Arial",
													"fontsize" : 12.0,
													"id" : "obj-12",
													"maxclass" : "newobj",
													"numinlets" : 2,
													"numoutlets" : 1,
													"outlettype" : [ "" ],
													"patching_rect" : [ 84.0, 338.0, 54.0, 22.0 ],
													"style" : "",
													"text" : "gate 1 1"
												}

											}
, 											{
												"box" : 												{
													"fontname" : "Arial",
													"fontsize" : 12.0,
													"id" : "obj-13",
													"maxclass" : "newobj",
													"numinlets" : 4,
													"numoutlets" : 4,
													"outlettype" : [ "", "", "", "" ],
													"patching_rect" : [ 84.0, 240.5, 133.0, 22.0 ],
													"style" : "",
													"text" : "route halt resume clear"
												}

											}
, 											{
												"box" : 												{
													"fontname" : "Arial",
													"fontsize" : 12.0,
													"id" : "obj-14",
													"maxclass" : "comment",
													"numinlets" : 1,
													"numoutlets" : 0,
													"patching_rect" : [ 48.75, 113.75, 281.0, 20.0 ],
													"style" : "",
													"text" : "Resume processing incoming Go messages."
												}

											}
, 											{
												"box" : 												{
													"fontname" : "Arial",
													"fontsize" : 12.0,
													"id" : "obj-15",
													"maxclass" : "comment",
													"numinlets" : 1,
													"numoutlets" : 0,
													"patching_rect" : [ 42.75, 98.75, 296.0, 20.0 ],
													"style" : "",
													"text" : "- resume"
												}

											}
, 											{
												"box" : 												{
													"fontname" : "Arial",
													"fontsize" : 12.0,
													"id" : "obj-16",
													"linecount" : 2,
													"maxclass" : "comment",
													"numinlets" : 1,
													"numoutlets" : 0,
													"patching_rect" : [ 48.75, 68.75, 303.0, 33.0 ],
													"style" : "",
													"text" : "Stop processing incoming Go messages, and cancel any delayed one that is pending."
												}

											}
, 											{
												"box" : 												{
													"fontname" : "Arial",
													"fontsize" : 12.0,
													"id" : "obj-17",
													"maxclass" : "comment",
													"numinlets" : 1,
													"numoutlets" : 0,
													"patching_rect" : [ 29.0, 23.75, 101.0, 20.0 ],
													"style" : "",
													"text" : "Message format:"
												}

											}
, 											{
												"box" : 												{
													"fontname" : "Arial",
													"fontsize" : 12.0,
													"id" : "obj-18",
													"maxclass" : "newobj",
													"numinlets" : 2,
													"numoutlets" : 1,
													"outlettype" : [ "int" ],
													"patching_rect" : [ 84.0, 469.25, 32.5, 22.0 ],
													"style" : "",
													"text" : "i 0"
												}

											}
, 											{
												"box" : 												{
													"fontname" : "Arial",
													"fontsize" : 12.0,
													"id" : "obj-19",
													"maxclass" : "newobj",
													"numinlets" : 1,
													"numoutlets" : 1,
													"outlettype" : [ "stop" ],
													"patching_rect" : [ 32.75, 291.75, 40.0, 22.0 ],
													"style" : "",
													"text" : "t stop"
												}

											}
, 											{
												"box" : 												{
													"fontname" : "Arial",
													"fontsize" : 12.0,
													"id" : "obj-20",
													"maxclass" : "newobj",
													"numinlets" : 1,
													"numoutlets" : 2,
													"outlettype" : [ "int", "int" ],
													"patching_rect" : [ 84.0, 366.0, 69.0, 22.0 ],
													"style" : "",
													"text" : "unpack 0 0"
												}

											}
, 											{
												"box" : 												{
													"fontname" : "Arial",
													"fontsize" : 12.0,
													"id" : "obj-21",
													"maxclass" : "message",
													"numinlets" : 2,
													"numoutlets" : 1,
													"outlettype" : [ "" ],
													"patching_rect" : [ 100.5, 540.5, 117.0, 22.0 ],
													"style" : "",
													"text" : "rewind, fwd $1, next"
												}

											}
, 											{
												"box" : 												{
													"fontname" : "Arial",
													"fontsize" : 12.0,
													"id" : "obj-22",
													"maxclass" : "newobj",
													"numinlets" : 2,
													"numoutlets" : 1,
													"outlettype" : [ "bang" ],
													"patching_rect" : [ 84.0, 435.5, 39.0, 22.0 ],
													"style" : "",
													"text" : "delay"
												}

											}
, 											{
												"box" : 												{
													"fontname" : "Arial",
													"fontsize" : 12.0,
													"id" : "obj-23",
													"maxclass" : "newobj",
													"numinlets" : 2,
													"numoutlets" : 2,
													"outlettype" : [ "int", "int" ],
													"patching_rect" : [ 84.0, 399.25, 39.0, 22.0 ],
													"style" : "",
													"text" : "swap"
												}

											}
, 											{
												"box" : 												{
													"fontname" : "Arial",
													"fontsize" : 12.0,
													"id" : "obj-24",
													"maxclass" : "comment",
													"numinlets" : 1,
													"numoutlets" : 0,
													"patching_rect" : [ 29.0, 10.0, 302.0, 20.0 ],
													"style" : "",
													"text" : "Receives Go messages from qlist file and other places."
												}

											}
, 											{
												"box" : 												{
													"fontname" : "Arial",
													"fontsize" : 12.0,
													"id" : "obj-25",
													"maxclass" : "comment",
													"numinlets" : 1,
													"numoutlets" : 0,
													"patching_rect" : [ 127.25, 590.5, 107.0, 20.0 ],
													"style" : "",
													"text" : "messages for qlist"
												}

											}
, 											{
												"box" : 												{
													"comment" : "message for qlist",
													"id" : "obj-26",
													"maxclass" : "outlet",
													"numinlets" : 1,
													"numoutlets" : 0,
													"patching_rect" : [ 100.5, 589.25, 25.0, 25.0 ],
													"style" : ""
												}

											}
, 											{
												"box" : 												{
													"fontname" : "Arial",
													"fontsize" : 12.0,
													"id" : "obj-27",
													"maxclass" : "comment",
													"numinlets" : 1,
													"numoutlets" : 0,
													"patching_rect" : [ 29.0, 166.25, 254.0, 20.0 ],
													"style" : "",
													"text" : "NB: This patch is not reentrant (due to delay)!"
												}

											}
 ],
										"lines" : [ 											{
												"patchline" : 												{
													"destination" : [ "obj-12", 0 ],
													"disabled" : 0,
													"hidden" : 0,
													"midpoints" : [ 131.25, 324.25, 93.5, 324.25 ],
													"source" : [ "obj-10", 0 ]
												}

											}
, 											{
												"patchline" : 												{
													"destination" : [ "obj-12", 0 ],
													"disabled" : 0,
													"hidden" : 0,
													"source" : [ "obj-11", 0 ]
												}

											}
, 											{
												"patchline" : 												{
													"destination" : [ "obj-20", 0 ],
													"disabled" : 0,
													"hidden" : 0,
													"source" : [ "obj-12", 0 ]
												}

											}
, 											{
												"patchline" : 												{
													"destination" : [ "obj-10", 0 ],
													"disabled" : 0,
													"hidden" : 0,
													"source" : [ "obj-13", 1 ]
												}

											}
, 											{
												"patchline" : 												{
													"destination" : [ "obj-11", 0 ],
													"disabled" : 0,
													"hidden" : 0,
													"source" : [ "obj-13", 0 ]
												}

											}
, 											{
												"patchline" : 												{
													"destination" : [ "obj-12", 1 ],
													"disabled" : 0,
													"hidden" : 0,
													"midpoints" : [ 207.5, 329.5, 128.5, 329.5 ],
													"source" : [ "obj-13", 3 ]
												}

											}
, 											{
												"patchline" : 												{
													"destination" : [ "obj-19", 0 ],
													"disabled" : 0,
													"hidden" : 0,
													"midpoints" : [ 169.5, 280.25, 42.25, 280.25 ],
													"source" : [ "obj-13", 2 ]
												}

											}
, 											{
												"patchline" : 												{
													"destination" : [ "obj-19", 0 ],
													"disabled" : 0,
													"hidden" : 0,
													"midpoints" : [ 93.5, 273.25, 42.25, 273.25 ],
													"source" : [ "obj-13", 0 ]
												}

											}
, 											{
												"patchline" : 												{
													"destination" : [ "obj-9", 0 ],
													"disabled" : 0,
													"hidden" : 0,
													"source" : [ "obj-18", 0 ]
												}

											}
, 											{
												"patchline" : 												{
													"destination" : [ "obj-22", 0 ],
													"disabled" : 0,
													"hidden" : 0,
													"midpoints" : [ 42.25, 428.0, 93.5, 428.0 ],
													"source" : [ "obj-19", 0 ]
												}

											}
, 											{
												"patchline" : 												{
													"destination" : [ "obj-9", 0 ],
													"disabled" : 0,
													"hidden" : 0,
													"midpoints" : [ 248.5, 496.75, 93.5, 496.75 ],
													"source" : [ "obj-2", 0 ]
												}

											}
, 											{
												"patchline" : 												{
													"destination" : [ "obj-23", 1 ],
													"disabled" : 0,
													"hidden" : 0,
													"source" : [ "obj-20", 1 ]
												}

											}
, 											{
												"patchline" : 												{
													"destination" : [ "obj-23", 0 ],
													"disabled" : 0,
													"hidden" : 0,
													"source" : [ "obj-20", 0 ]
												}

											}
, 											{
												"patchline" : 												{
													"destination" : [ "obj-26", 0 ],
													"disabled" : 0,
													"hidden" : 0,
													"source" : [ "obj-21", 0 ]
												}

											}
, 											{
												"patchline" : 												{
													"destination" : [ "obj-18", 0 ],
													"disabled" : 0,
													"hidden" : 0,
													"source" : [ "obj-22", 0 ]
												}

											}
, 											{
												"patchline" : 												{
													"destination" : [ "obj-18", 1 ],
													"disabled" : 0,
													"hidden" : 0,
													"midpoints" : [ 113.5, 427.0, 131.0, 427.0, 131.0, 462.0, 107.0, 462.0 ],
													"source" : [ "obj-23", 1 ]
												}

											}
, 											{
												"patchline" : 												{
													"destination" : [ "obj-22", 0 ],
													"disabled" : 0,
													"hidden" : 0,
													"source" : [ "obj-23", 0 ]
												}

											}
, 											{
												"patchline" : 												{
													"destination" : [ "obj-13", 0 ],
													"disabled" : 0,
													"hidden" : 0,
													"source" : [ "obj-28", 0 ]
												}

											}
, 											{
												"patchline" : 												{
													"destination" : [ "obj-13", 0 ],
													"disabled" : 0,
													"hidden" : 0,
													"source" : [ "obj-3", 0 ]
												}

											}
, 											{
												"patchline" : 												{
													"destination" : [ "obj-26", 0 ],
													"disabled" : 0,
													"hidden" : 0,
													"midpoints" : [ 28.5, 571.75, 110.0, 571.75 ],
													"source" : [ "obj-8", 0 ]
												}

											}
, 											{
												"patchline" : 												{
													"destination" : [ "obj-21", 0 ],
													"disabled" : 0,
													"hidden" : 0,
													"source" : [ "obj-9", 1 ]
												}

											}
, 											{
												"patchline" : 												{
													"destination" : [ "obj-8", 0 ],
													"disabled" : 0,
													"hidden" : 0,
													"midpoints" : [ 93.5, 533.0, 28.5, 533.0 ],
													"source" : [ "obj-9", 0 ]
												}

											}
 ]
									}
,
									"patching_rect" : [ 57.79335, 200.0, 45.0, 22.0 ],
									"saved_object_attributes" : 									{
										"description" : "",
										"digest" : "",
										"globalpatchername" : "",
										"style" : "",
										"tags" : ""
									}
,
									"style" : "",
									"text" : "p goto"
								}

							}
, 							{
								"box" : 								{
									"fontname" : "Arial",
									"fontsize" : 12.0,
									"id" : "obj-48",
									"maxclass" : "newobj",
									"numinlets" : 1,
									"numoutlets" : 3,
									"outlettype" : [ "", "bang", "bang" ],
									"patching_rect" : [ 26.530655, 261.012268, 49.0, 22.0 ],
									"save" : [ "#N", "qlist", ";", "#X", "insert", "COM", "vim:syn=qlist", "COM", "INIT", "-------------", ";", ";", "#X", "insert", "LoopVis1", 0, ";", ";", "#X", "insert", "LoopVis2", 0, ";", ";", "#X", "insert", "LoopVis3", 0, ";", ";", "#X", "insert", "LoopVis4", 0, ";", ";", "#X", "insert", "LoopVis5", 0, ";", ";", "#X", "insert", "LoopVis6", 0, ";", ";", "#X", "insert", "LoopVis7", 0, ";", ";", "#X", "insert", "Loop1", 0, ";", ";", "#X", "insert", "Loop2", 0, ";", ";", "#X", "insert", "Loop3", 0, ";", ";", "#X", "insert", "Loop4", 0, ";", ";", "#X", "insert", "Loop5", 0, ";", ";", "#X", "insert", "Loop6", 0, ";", ";", "#X", "insert", "Loop7", 0, ";", ";", "#X", "insert", 0, ";", ";", "#X", "insert", "COM", "P21", ";", ";", "#X", "insert", "NewSet", "bang", ";", ";", "#X", "insert", "Buffer1", "traffic", ";", ";", "#X", "insert", "Buffer2", "silent", ";", ";", "#X", "insert", "Buffer3", "silent", ";", ";", "#X", "insert", "Buffer4", "silent", ";", ";", "#X", "insert", "Buffer5", "silent", ";", ";", "#X", "insert", "Buffer6", "silent", ";", ";", "#X", "insert", "Buffer7", "silent", ";", ";", "#X", "insert", "Go", 2, 100000, ";", ";", "#X", "insert", 1, ";", ";", "#X", "insert", "COM", "P20", ";", ";", "#X", "insert", "NewSet", "bang", ";", ";", "#X", "insert", "Buffer1", "why_is_it_dancing_", ";", ";", "#X", "insert", "Buffer2", "why_is_it_dancing_2", ";", ";", "#X", "insert", "Buffer3", "why_is_it_dancing_3", ";", ";", "#X", "insert", "Buffer4", "why_is_it_dancing_4", ";", ";", "#X", "insert", "Buffer5", "why_is_it_dancing_5", ";", ";", "#X", "insert", "Buffer6", "silent", ";", ";", "#X", "insert", "Buffer7", "silent", ";", ";", "#X", "insert", "Play1", 1, ";", ";", "#X", "insert", "Go", 3, 80000, ";", ";", "#X", "insert", 2, ";", ";", "#X", "insert", "COM", "P8", ";", ";", "#X", "insert", "NewSet", "bang", ";", ";", "#X", "insert", "Buffer1", "change10", ";", ";", "#X", "insert", "Buffer2", "change11", ";", ";", "#X", "insert", "Buffer3", "change12", ";", ";", "#X", "insert", "Buffer4", "change13", ";", ";", "#X", "insert", "Buffer5", "change14", ";", ";", "#X", "insert", "Buffer6", "silent", ";", ";", "#X", "insert", "Buffer7", "silent", ";", ";", "#X", "insert", "LoopVis1", 1, ";", ";", "#X", "insert", "LoopVis2", 1, ";", ";", "#X", "insert", "LoopVis3", 1, ";", ";", "#X", "insert", "LoopVis4", 1, ";", ";", "#X", "insert", "LoopVis5", 1, ";", ";", "#X", "insert", "Go", 4, 40000, ";", ";", "#X", "insert", 3, ";", ";", "#X", "insert", "COM", "P18", ";", ";", "#X", "insert", "NewSet", "bang", ";", ";", "#X", "insert", "Buffer1", "quark-gluon_plasma", ";", ";", "#X", "insert", "Buffer2", "super_nova", ";", ";", "#X", "insert", "Buffer3", "quark-gluon_plasma3", ";", ";", "#X", "insert", "Buffer4", "quark-gluon_plasma4", ";", ";", "#X", "insert", "Buffer5", "quark-gluon_plasma5", ";", ";", "#X", "insert", "Buffer6", "silent", ";", ";", "#X", "insert", "Buffer7", "silent", ";", ";", "#X", "insert", "LoopVis1", 0, ";", ";", "#X", "insert", "LoopVis2", 0, ";", ";", "#X", "insert", "LoopVis3", 0, ";", ";", "#X", "insert", "LoopVis4", 0, ";", ";", "#X", "insert", "LoopVis5", 0, ";", ";", "#X", "insert", "Go", 5, 35000, ";", ";", "#X", "insert", 4, ";", ";", "#X", "insert", "COM", "P15", ";", ";", "#X", "insert", "NewSet", "bang", ";", ";", "#X", "insert", "Buffer1", "perfect_Stella_coathangers", ";", ";", "#X", "insert", "Buffer2", "perfect_Stella_I_only", ";", ";", "#X", "insert", "Buffer3", "perfect_Stella_loop", ";", ";", "#X", "insert", "Buffer4", "silent", ";", ";", "#X", "insert", "Buffer5", "silent", ";", ";", "#X", "insert", "Buffer6", "silent", ";", ";", "#X", "insert", "Buffer7", "silent", ";", ";", "#X", "insert", "Play1", 1, ";", ";", "#X", "insert", "Go", 6, 45000, ";", ";", "#X", "insert", 5, ";", ";", "#X", "insert", "COM", "P19", ";", ";", "#X", "insert", "NewSet", "bang", ";", ";", "#X", "insert", "Buffer1", "resonator_Faraday", ";", ";", "#X", "insert", "Buffer2", "resonator1", ";", ";", "#X", "insert", "Buffer3", "resonator2", ";", ";", "#X", "insert", "Buffer4", "resonator3", ";", ";", "#X", "insert", "Buffer5", "resonator4", ";", ";", "#X", "insert", "Buffer6", "resonator5", ";", ";", "#X", "insert", "Buffer7", "resonator6", ";", ";", "#X", "insert", "Play1", 1, ";", ";", "#X", "insert", "Go", 7, 40000, ";", ";", "#X", "insert", 6, ";", ";", "#X", "insert", "COM", "P3", ";", ";", "#X", "insert", "NewSet", "bang", ";", ";", "#X", "insert", "Buffer1", "proto_compass", ";", ";", "#X", "insert", "Buffer2", "cosmic_rays", ";", ";", "#X", "insert", "Buffer3", "physics_room", ";", ";", "#X", "insert", "Buffer4", "silent", ";", ";", "#X", "insert", "Buffer5", "silent", ";", ";", "#X", "insert", "Buffer6", "silent", ";", ";", "#X", "insert", "Buffer7", "silent", ";", ";", "#X", "insert", "Play1", 1, ";", ";", "#X", "insert", "Go", 8, 80000, ";", ";", "#X", "insert", 7, ";", ";", "#X", "insert", "COM", "P1", ";", ";", "#X", "insert", "NewSet", "bang", ";", ";", "#X", "insert", "Buffer1", "camping_talk", ";", ";", "#X", "insert", "Buffer2", "greenhouse_water", ";", ";", "#X", "insert", "Buffer3", "candy_machine", ";", ";", "#X", "insert", "Buffer4", "silent", ";", ";", "#X", "insert", "Buffer5", "silent", ";", ";", "#X", "insert", "Buffer6", "silent", ";", ";", "#X", "insert", "Buffer7", "silent", ";", ";", "#X", "insert", "Play1", 1, ";", ";", "#X", "insert", "Go", 9, 85000, ";", ";", "#X", "insert", 8, ";", ";", "#X", "insert", "COM", "TACET", ";", ";", "#X", "insert", "NewSet", "bang", ";", ";", "#X", "insert", "Buffer1", "silent", ";", ";", "#X", "insert", "Buffer2", "silent", ";", ";", "#X", "insert", "Buffer3", "silent", ";", ";", "#X", "insert", "Buffer4", "silent", ";", ";", "#X", "insert", "Buffer5", "silent", ";", ";", "#X", "insert", "Buffer6", "silent", ";", ";", "#X", "insert", "Buffer7", "silent", ";", ";", "#X", "insert", 9, ";", ";" ],
									"style" : "",
									"text" : "qlist"
								}

							}
 ],
						"lines" : [ 							{
								"patchline" : 								{
									"destination" : [ "obj-42", 0 ],
									"disabled" : 0,
									"hidden" : 0,
									"source" : [ "obj-1", 0 ]
								}

							}
, 							{
								"patchline" : 								{
									"destination" : [ "obj-48", 0 ],
									"disabled" : 0,
									"hidden" : 0,
									"midpoints" : [ 283.5, 243.006134, 36.030655, 243.006134 ],
									"source" : [ "obj-10", 0 ]
								}

							}
, 							{
								"patchline" : 								{
									"destination" : [ "obj-41", 0 ],
									"disabled" : 0,
									"hidden" : 0,
									"source" : [ "obj-17", 0 ]
								}

							}
, 							{
								"patchline" : 								{
									"destination" : [ "obj-48", 0 ],
									"disabled" : 0,
									"hidden" : 0,
									"midpoints" : [ 120.561295, 236.260956, 36.030655, 236.260956 ],
									"source" : [ "obj-41", 0 ]
								}

							}
, 							{
								"patchline" : 								{
									"destination" : [ "obj-17", 0 ],
									"disabled" : 0,
									"hidden" : 0,
									"source" : [ "obj-42", 0 ]
								}

							}
, 							{
								"patchline" : 								{
									"destination" : [ "obj-48", 0 ],
									"disabled" : 0,
									"hidden" : 0,
									"source" : [ "obj-43", 0 ]
								}

							}
, 							{
								"patchline" : 								{
									"destination" : [ "obj-48", 0 ],
									"disabled" : 0,
									"hidden" : 0,
									"midpoints" : [ 67.29335, 230.509644, 36.030655, 230.509644 ],
									"source" : [ "obj-47", 0 ]
								}

							}
 ]
					}
,
					"patching_rect" : [ 804.0, 947.06665, 57.0, 22.0 ],
					"saved_object_attributes" : 					{
						"description" : "",
						"digest" : "",
						"globalpatchername" : "",
						"style" : "",
						"tags" : ""
					}
,
					"style" : "",
					"text" : "p control"
				}

			}
, 			{
				"box" : 				{
					"id" : "obj-52",
					"maxclass" : "newobj",
					"numinlets" : 0,
					"numoutlets" : 1,
					"outlettype" : [ "" ],
					"patching_rect" : [ 462.0, 858.022278, 56.0, 22.0 ],
					"style" : "",
					"text" : "r Buffer7"
				}

			}
, 			{
				"box" : 				{
					"id" : "obj-51",
					"maxclass" : "newobj",
					"numinlets" : 0,
					"numoutlets" : 1,
					"outlettype" : [ "" ],
					"patching_rect" : [ 462.0, 718.899475, 56.0, 22.0 ],
					"style" : "",
					"text" : "r Buffer6"
				}

			}
, 			{
				"box" : 				{
					"id" : "obj-50",
					"maxclass" : "newobj",
					"numinlets" : 0,
					"numoutlets" : 1,
					"outlettype" : [ "" ],
					"patching_rect" : [ 462.0, 579.0, 56.0, 22.0 ],
					"style" : "",
					"text" : "r Buffer5"
				}

			}
, 			{
				"box" : 				{
					"id" : "obj-49",
					"maxclass" : "newobj",
					"numinlets" : 0,
					"numoutlets" : 1,
					"outlettype" : [ "" ],
					"patching_rect" : [ 462.0, 442.368286, 56.0, 22.0 ],
					"style" : "",
					"text" : "r Buffer4"
				}

			}
, 			{
				"box" : 				{
					"id" : "obj-48",
					"maxclass" : "newobj",
					"numinlets" : 0,
					"numoutlets" : 1,
					"outlettype" : [ "" ],
					"patching_rect" : [ 462.0, 303.245514, 56.0, 22.0 ],
					"style" : "",
					"text" : "r Buffer3"
				}

			}
, 			{
				"box" : 				{
					"id" : "obj-47",
					"maxclass" : "newobj",
					"numinlets" : 0,
					"numoutlets" : 1,
					"outlettype" : [ "" ],
					"patching_rect" : [ 462.0, 162.0, 56.0, 22.0 ],
					"style" : "",
					"text" : "r Buffer2"
				}

			}
, 			{
				"box" : 				{
					"id" : "obj-45",
					"maxclass" : "newobj",
					"numinlets" : 0,
					"numoutlets" : 1,
					"outlettype" : [ "" ],
					"patching_rect" : [ 462.0, 19.0, 56.0, 22.0 ],
					"style" : "",
					"text" : "r Buffer1"
				}

			}
, 			{
				"box" : 				{
					"id" : "obj-44",
					"maxclass" : "newobj",
					"numinlets" : 0,
					"numoutlets" : 1,
					"outlettype" : [ "" ],
					"patching_rect" : [ 325.666656, 858.022278, 51.0, 22.0 ],
					"style" : "",
					"text" : "r Loop7"
				}

			}
, 			{
				"box" : 				{
					"id" : "obj-43",
					"maxclass" : "newobj",
					"numinlets" : 0,
					"numoutlets" : 1,
					"outlettype" : [ "" ],
					"patching_rect" : [ 325.666656, 718.899475, 51.0, 22.0 ],
					"style" : "",
					"text" : "r Loop6"
				}

			}
, 			{
				"box" : 				{
					"id" : "obj-42",
					"maxclass" : "newobj",
					"numinlets" : 0,
					"numoutlets" : 1,
					"outlettype" : [ "" ],
					"patching_rect" : [ 325.666656, 579.0, 51.0, 22.0 ],
					"style" : "",
					"text" : "r Loop5"
				}

			}
, 			{
				"box" : 				{
					"id" : "obj-41",
					"maxclass" : "newobj",
					"numinlets" : 0,
					"numoutlets" : 1,
					"outlettype" : [ "" ],
					"patching_rect" : [ 325.666656, 442.368286, 51.0, 22.0 ],
					"style" : "",
					"text" : "r Loop4"
				}

			}
, 			{
				"box" : 				{
					"id" : "obj-40",
					"maxclass" : "newobj",
					"numinlets" : 0,
					"numoutlets" : 1,
					"outlettype" : [ "" ],
					"patching_rect" : [ 325.666656, 303.245514, 51.0, 22.0 ],
					"style" : "",
					"text" : "r Loop3"
				}

			}
, 			{
				"box" : 				{
					"id" : "obj-39",
					"maxclass" : "newobj",
					"numinlets" : 0,
					"numoutlets" : 1,
					"outlettype" : [ "" ],
					"patching_rect" : [ 325.666656, 162.0, 51.0, 22.0 ],
					"style" : "",
					"text" : "r Loop2"
				}

			}
, 			{
				"box" : 				{
					"id" : "obj-37",
					"maxclass" : "newobj",
					"numinlets" : 0,
					"numoutlets" : 1,
					"outlettype" : [ "" ],
					"patching_rect" : [ 325.666656, 19.0, 51.0, 22.0 ],
					"style" : "",
					"text" : "r Loop1"
				}

			}
, 			{
				"box" : 				{
					"id" : "obj-36",
					"maxclass" : "newobj",
					"numinlets" : 0,
					"numoutlets" : 1,
					"outlettype" : [ "" ],
					"patching_rect" : [ 189.0, 858.022278, 68.0, 22.0 ],
					"style" : "",
					"text" : "r LoopVis7"
				}

			}
, 			{
				"box" : 				{
					"id" : "obj-35",
					"maxclass" : "newobj",
					"numinlets" : 0,
					"numoutlets" : 1,
					"outlettype" : [ "" ],
					"patching_rect" : [ 189.0, 718.899475, 68.0, 22.0 ],
					"style" : "",
					"text" : "r LoopVis6"
				}

			}
, 			{
				"box" : 				{
					"id" : "obj-34",
					"maxclass" : "newobj",
					"numinlets" : 0,
					"numoutlets" : 1,
					"outlettype" : [ "" ],
					"patching_rect" : [ 189.0, 579.0, 68.0, 22.0 ],
					"style" : "",
					"text" : "r LoopVis5"
				}

			}
, 			{
				"box" : 				{
					"id" : "obj-33",
					"maxclass" : "newobj",
					"numinlets" : 0,
					"numoutlets" : 1,
					"outlettype" : [ "" ],
					"patching_rect" : [ 189.0, 442.368286, 68.0, 22.0 ],
					"style" : "",
					"text" : "r LoopVis4"
				}

			}
, 			{
				"box" : 				{
					"id" : "obj-32",
					"maxclass" : "newobj",
					"numinlets" : 0,
					"numoutlets" : 1,
					"outlettype" : [ "" ],
					"patching_rect" : [ 189.0, 303.245514, 68.0, 22.0 ],
					"style" : "",
					"text" : "r LoopVis3"
				}

			}
, 			{
				"box" : 				{
					"id" : "obj-31",
					"maxclass" : "newobj",
					"numinlets" : 0,
					"numoutlets" : 1,
					"outlettype" : [ "" ],
					"patching_rect" : [ 189.0, 162.0, 68.0, 22.0 ],
					"style" : "",
					"text" : "r LoopVis2"
				}

			}
, 			{
				"box" : 				{
					"id" : "obj-30",
					"maxclass" : "newobj",
					"numinlets" : 0,
					"numoutlets" : 1,
					"outlettype" : [ "" ],
					"patching_rect" : [ 189.0, 19.0, 68.0, 22.0 ],
					"style" : "",
					"text" : "r LoopVis1"
				}

			}
, 			{
				"box" : 				{
					"id" : "obj-29",
					"maxclass" : "newobj",
					"numinlets" : 0,
					"numoutlets" : 1,
					"outlettype" : [ "" ],
					"patching_rect" : [ 53.0, 858.022278, 48.0, 22.0 ],
					"style" : "",
					"text" : "r Play7"
				}

			}
, 			{
				"box" : 				{
					"id" : "obj-28",
					"maxclass" : "newobj",
					"numinlets" : 0,
					"numoutlets" : 1,
					"outlettype" : [ "" ],
					"patching_rect" : [ 53.0, 718.899475, 48.0, 22.0 ],
					"style" : "",
					"text" : "r Play6"
				}

			}
, 			{
				"box" : 				{
					"id" : "obj-22",
					"maxclass" : "newobj",
					"numinlets" : 0,
					"numoutlets" : 1,
					"outlettype" : [ "" ],
					"patching_rect" : [ 53.0, 579.0, 48.0, 22.0 ],
					"style" : "",
					"text" : "r Play5"
				}

			}
, 			{
				"box" : 				{
					"id" : "obj-7",
					"maxclass" : "newobj",
					"numinlets" : 0,
					"numoutlets" : 1,
					"outlettype" : [ "" ],
					"patching_rect" : [ 53.0, 442.368286, 48.0, 22.0 ],
					"style" : "",
					"text" : "r Play4"
				}

			}
, 			{
				"box" : 				{
					"id" : "obj-6",
					"maxclass" : "newobj",
					"numinlets" : 0,
					"numoutlets" : 1,
					"outlettype" : [ "" ],
					"patching_rect" : [ 53.0, 303.245514, 48.0, 22.0 ],
					"style" : "",
					"text" : "r Play3"
				}

			}
, 			{
				"box" : 				{
					"id" : "obj-4",
					"maxclass" : "newobj",
					"numinlets" : 0,
					"numoutlets" : 1,
					"outlettype" : [ "" ],
					"patching_rect" : [ 53.0, 162.0, 48.0, 22.0 ],
					"style" : "",
					"text" : "r Play2"
				}

			}
, 			{
				"box" : 				{
					"id" : "obj-3",
					"maxclass" : "newobj",
					"numinlets" : 0,
					"numoutlets" : 1,
					"outlettype" : [ "" ],
					"patching_rect" : [ 53.0, 19.0, 48.0, 22.0 ],
					"style" : "",
					"text" : "r Play1"
				}

			}
, 			{
				"box" : 				{
					"id" : "obj-27",
					"maxclass" : "newobj",
					"numinlets" : 2,
					"numoutlets" : 2,
					"outlettype" : [ "bang", "" ],
					"patching_rect" : [ 660.0, 127.714279, 36.0, 22.0 ],
					"style" : "",
					"text" : "sel 0"
				}

			}
, 			{
				"box" : 				{
					"id" : "obj-26",
					"maxclass" : "newobj",
					"numinlets" : 1,
					"numoutlets" : 2,
					"outlettype" : [ "bang", "int" ],
					"patching_rect" : [ 660.0, 167.714279, 34.0, 22.0 ],
					"style" : "",
					"text" : "t b 0"
				}

			}
, 			{
				"box" : 				{
					"bgcolor" : [ 0.25, 0.25, 0.25, 1.0 ],
					"bgoncolor" : [ 0.952941, 0.564706, 0.098039, 1.0 ],
					"fontname" : "Arial Bold",
					"fontsize" : 20.0,
					"id" : "obj-25",
					"maxclass" : "textbutton",
					"mode" : 1,
					"numinlets" : 1,
					"numoutlets" : 3,
					"outlettype" : [ "", "", "int" ],
					"parameter_enable" : 0,
					"patching_rect" : [ 660.0, 56.209457, 91.0, 53.0 ],
					"presentation" : 1,
					"presentation_rect" : [ 611.0, 337.495178, 115.0, 53.0 ],
					"style" : "",
					"text" : "START",
					"textcolor" : [ 0.952941, 0.564706, 0.098039, 1.0 ],
					"texton" : "STOP",
					"textoncolor" : [ 0.25098, 0.25098, 0.25098, 1.0 ],
					"usebgoncolor" : 1
				}

			}
, 			{
				"box" : 				{
					"id" : "obj-24",
					"maxclass" : "newobj",
					"numinlets" : 0,
					"numoutlets" : 0,
					"patching_rect" : [ 740.0, 947.06665, 47.0, 22.0 ],
					"style" : "",
					"text" : "buffers"
				}

			}
, 			{
				"box" : 				{
					"args" : [ "mytimer" ],
					"bgmode" : 0,
					"border" : 0,
					"clickthrough" : 0,
					"enablehscroll" : 0,
					"enablevscroll" : 0,
					"id" : "obj-23",
					"lockeddragscroll" : 0,
					"maxclass" : "bpatcher",
					"name" : "time-display.maxpat",
					"numinlets" : 2,
					"numoutlets" : 0,
					"offset" : [ -161.0, -364.0 ],
					"patching_rect" : [ 633.0, 215.209457, 173.0, 53.0 ],
					"presentation" : 1,
					"presentation_rect" : [ 795.0, 337.495178, 173.0, 53.0 ],
					"viewvisibility" : 1
				}

			}
, 			{
				"box" : 				{
					"bgmode" : 0,
					"border" : 0,
					"clickthrough" : 0,
					"enablehscroll" : 0,
					"enablevscroll" : 0,
					"id" : "obj-21",
					"lockeddragscroll" : 0,
					"maxclass" : "bpatcher",
					"name" : "player.maxpat",
					"numinlets" : 4,
					"numoutlets" : 1,
					"offset" : [ -15.0, -14.0 ],
					"outlettype" : [ "signal" ],
					"patching_rect" : [ 53.0, 891.06665, 428.0, 82.0 ],
					"presentation" : 1,
					"presentation_rect" : [ 536.0, 214.066605, 428.0, 82.0 ],
					"viewvisibility" : 1
				}

			}
, 			{
				"box" : 				{
					"bgmode" : 0,
					"border" : 0,
					"clickthrough" : 0,
					"enablehscroll" : 0,
					"enablevscroll" : 0,
					"id" : "obj-20",
					"lockeddragscroll" : 0,
					"maxclass" : "bpatcher",
					"name" : "player.maxpat",
					"numinlets" : 4,
					"numoutlets" : 1,
					"offset" : [ -15.0, -14.0 ],
					"outlettype" : [ "signal" ],
					"patching_rect" : [ 53.0, 751.638, 428.0, 82.0 ],
					"presentation" : 1,
					"presentation_rect" : [ 536.0, 119.638016, 428.0, 82.0 ],
					"viewvisibility" : 1
				}

			}
, 			{
				"box" : 				{
					"bgmode" : 0,
					"border" : 0,
					"clickthrough" : 0,
					"enablehscroll" : 0,
					"enablevscroll" : 0,
					"id" : "obj-17",
					"lockeddragscroll" : 0,
					"maxclass" : "bpatcher",
					"name" : "player.maxpat",
					"numinlets" : 4,
					"numoutlets" : 1,
					"offset" : [ -15.0, -14.0 ],
					"outlettype" : [ "signal" ],
					"patching_rect" : [ 53.0, 612.209473, 428.0, 82.0 ],
					"presentation" : 1,
					"presentation_rect" : [ 536.0, 25.209454, 428.0, 82.0 ],
					"viewvisibility" : 1
				}

			}
, 			{
				"box" : 				{
					"bgmode" : 0,
					"border" : 0,
					"clickthrough" : 0,
					"enablehscroll" : 0,
					"enablevscroll" : 0,
					"id" : "obj-15",
					"lockeddragscroll" : 0,
					"maxclass" : "bpatcher",
					"name" : "player.maxpat",
					"numinlets" : 4,
					"numoutlets" : 1,
					"offset" : [ -15.0, -14.0 ],
					"outlettype" : [ "signal" ],
					"patching_rect" : [ 53.0, 474.495178, 428.0, 82.0 ],
					"presentation" : 1,
					"presentation_rect" : [ 52.0, 308.495178, 428.0, 82.0 ],
					"viewvisibility" : 1
				}

			}
, 			{
				"box" : 				{
					"bgmode" : 0,
					"border" : 0,
					"clickthrough" : 0,
					"enablehscroll" : 0,
					"enablevscroll" : 0,
					"id" : "obj-13",
					"lockeddragscroll" : 0,
					"maxclass" : "bpatcher",
					"name" : "player.maxpat",
					"numinlets" : 4,
					"numoutlets" : 1,
					"offset" : [ -15.0, -14.0 ],
					"outlettype" : [ "signal" ],
					"patching_rect" : [ 53.0, 335.066589, 428.0, 82.0 ],
					"presentation" : 1,
					"presentation_rect" : [ 52.0, 214.066589, 428.0, 82.0 ],
					"viewvisibility" : 1
				}

			}
, 			{
				"box" : 				{
					"bgmode" : 0,
					"border" : 0,
					"clickthrough" : 0,
					"enablehscroll" : 0,
					"enablevscroll" : 0,
					"id" : "obj-11",
					"lockeddragscroll" : 0,
					"maxclass" : "bpatcher",
					"name" : "player.maxpat",
					"numinlets" : 4,
					"numoutlets" : 1,
					"offset" : [ -15.0, -14.0 ],
					"outlettype" : [ "signal" ],
					"patching_rect" : [ 53.0, 195.638031, 428.0, 82.0 ],
					"presentation" : 1,
					"presentation_rect" : [ 52.0, 119.638031, 428.0, 82.0 ],
					"viewvisibility" : 1
				}

			}
, 			{
				"box" : 				{
					"bgmode" : 0,
					"border" : 0,
					"clickthrough" : 0,
					"enablehscroll" : 0,
					"enablevscroll" : 0,
					"id" : "obj-5",
					"lockeddragscroll" : 0,
					"maxclass" : "bpatcher",
					"name" : "player.maxpat",
					"numinlets" : 4,
					"numoutlets" : 1,
					"offset" : [ -15.0, -14.0 ],
					"outlettype" : [ "signal" ],
					"patching_rect" : [ 53.0, 56.209457, 428.0, 82.0 ],
					"presentation" : 1,
					"presentation_rect" : [ 52.0, 25.209454, 428.0, 82.0 ],
					"viewvisibility" : 1
				}

			}
, 			{
				"box" : 				{
					"fontsize" : 40.0,
					"id" : "obj-19",
					"maxclass" : "comment",
					"numinlets" : 1,
					"numoutlets" : 0,
					"patching_rect" : [ 17.0, 882.022278, 42.0, 51.0 ],
					"presentation" : 1,
					"presentation_rect" : [ 500.0, 205.022293, 42.0, 51.0 ],
					"style" : "",
					"text" : "7"
				}

			}
, 			{
				"box" : 				{
					"fontsize" : 40.0,
					"id" : "obj-16",
					"maxclass" : "comment",
					"numinlets" : 1,
					"numoutlets" : 0,
					"patching_rect" : [ 17.0, 742.899475, 42.0, 51.0 ],
					"presentation" : 1,
					"presentation_rect" : [ 500.0, 110.89949, 42.0, 51.0 ],
					"style" : "",
					"text" : "6"
				}

			}
, 			{
				"box" : 				{
					"fontsize" : 40.0,
					"id" : "obj-14",
					"maxclass" : "comment",
					"numinlets" : 1,
					"numoutlets" : 0,
					"patching_rect" : [ 17.0, 603.776733, 42.0, 51.0 ],
					"presentation" : 1,
					"presentation_rect" : [ 500.0, 16.776745, 42.0, 51.0 ],
					"style" : "",
					"text" : "5"
				}

			}
, 			{
				"box" : 				{
					"fontsize" : 40.0,
					"id" : "obj-12",
					"maxclass" : "comment",
					"numinlets" : 1,
					"numoutlets" : 0,
					"patching_rect" : [ 17.0, 466.368286, 42.0, 51.0 ],
					"presentation" : 1,
					"presentation_rect" : [ 16.0, 300.368286, 42.0, 51.0 ],
					"style" : "",
					"text" : "4"
				}

			}
, 			{
				"box" : 				{
					"fontsize" : 40.0,
					"id" : "obj-10",
					"maxclass" : "comment",
					"numinlets" : 1,
					"numoutlets" : 0,
					"patching_rect" : [ 17.0, 327.245514, 42.0, 51.0 ],
					"presentation" : 1,
					"presentation_rect" : [ 16.0, 206.245514, 42.0, 51.0 ],
					"style" : "",
					"text" : "3"
				}

			}
, 			{
				"box" : 				{
					"fontsize" : 40.0,
					"id" : "obj-9",
					"maxclass" : "comment",
					"numinlets" : 1,
					"numoutlets" : 0,
					"patching_rect" : [ 17.0, 188.122757, 42.0, 51.0 ],
					"presentation" : 1,
					"presentation_rect" : [ 16.0, 112.122757, 42.0, 51.0 ],
					"style" : "",
					"text" : "2"
				}

			}
, 			{
				"box" : 				{
					"fontsize" : 40.0,
					"id" : "obj-8",
					"maxclass" : "comment",
					"numinlets" : 1,
					"numoutlets" : 0,
					"patching_rect" : [ 17.0, 49.0, 42.0, 51.0 ],
					"presentation" : 1,
					"presentation_rect" : [ 16.0, 18.0, 42.0, 51.0 ],
					"style" : "",
					"text" : "1"
				}

			}
, 			{
				"box" : 				{
					"annotation" : "## Mono output fader for hemispherical speakers ##",
					"bgmode" : 1,
					"border" : 0,
					"clickthrough" : 0,
					"enablehscroll" : 0,
					"enablevscroll" : 0,
					"id" : "obj-18",
					"lockeddragscroll" : 0,
					"maxclass" : "bpatcher",
					"name" : "az.hemi-m.maxpat",
					"numinlets" : 2,
					"numoutlets" : 0,
					"offset" : [ 0.0, 0.0 ],
					"patching_rect" : [ 597.0, 677.06665, 71.0, 292.0 ],
					"presentation" : 1,
					"presentation_rect" : [ 985.0, 25.209454, 71.0, 292.0 ],
					"prototypename" : "pixl",
					"varname" : "hemi-m",
					"viewvisibility" : 1
				}

			}
 ],
		"lines" : [ 			{
				"patchline" : 				{
					"destination" : [ "obj-38", 0 ],
					"disabled" : 0,
					"hidden" : 0,
					"source" : [ "obj-1", 0 ]
				}

			}
, 			{
				"patchline" : 				{
					"destination" : [ "obj-18", 0 ],
					"disabled" : 0,
					"hidden" : 0,
					"source" : [ "obj-11", 0 ]
				}

			}
, 			{
				"patchline" : 				{
					"destination" : [ "obj-18", 0 ],
					"disabled" : 0,
					"hidden" : 0,
					"source" : [ "obj-13", 0 ]
				}

			}
, 			{
				"patchline" : 				{
					"destination" : [ "obj-18", 0 ],
					"disabled" : 0,
					"hidden" : 0,
					"source" : [ "obj-15", 0 ]
				}

			}
, 			{
				"patchline" : 				{
					"destination" : [ "obj-18", 0 ],
					"disabled" : 0,
					"hidden" : 0,
					"source" : [ "obj-17", 0 ]
				}

			}
, 			{
				"patchline" : 				{
					"destination" : [ "obj-18", 0 ],
					"disabled" : 0,
					"hidden" : 0,
					"source" : [ "obj-20", 0 ]
				}

			}
, 			{
				"patchline" : 				{
					"destination" : [ "obj-18", 0 ],
					"disabled" : 0,
					"hidden" : 0,
					"source" : [ "obj-21", 0 ]
				}

			}
, 			{
				"patchline" : 				{
					"destination" : [ "obj-17", 0 ],
					"disabled" : 0,
					"hidden" : 0,
					"source" : [ "obj-22", 0 ]
				}

			}
, 			{
				"patchline" : 				{
					"destination" : [ "obj-27", 0 ],
					"disabled" : 0,
					"hidden" : 0,
					"source" : [ "obj-25", 0 ]
				}

			}
, 			{
				"patchline" : 				{
					"destination" : [ "obj-23", 0 ],
					"disabled" : 0,
					"hidden" : 0,
					"source" : [ "obj-26", 1 ]
				}

			}
, 			{
				"patchline" : 				{
					"destination" : [ "obj-23", 1 ],
					"disabled" : 0,
					"hidden" : 0,
					"source" : [ "obj-26", 0 ]
				}

			}
, 			{
				"patchline" : 				{
					"destination" : [ "obj-23", 0 ],
					"disabled" : 0,
					"hidden" : 0,
					"midpoints" : [ 686.5, 158.461868, 642.5, 158.461868 ],
					"source" : [ "obj-27", 1 ]
				}

			}
, 			{
				"patchline" : 				{
					"destination" : [ "obj-26", 0 ],
					"disabled" : 0,
					"hidden" : 0,
					"source" : [ "obj-27", 0 ]
				}

			}
, 			{
				"patchline" : 				{
					"destination" : [ "obj-61", 0 ],
					"disabled" : 0,
					"hidden" : 0,
					"source" : [ "obj-27", 1 ]
				}

			}
, 			{
				"patchline" : 				{
					"destination" : [ "obj-20", 0 ],
					"disabled" : 0,
					"hidden" : 0,
					"source" : [ "obj-28", 0 ]
				}

			}
, 			{
				"patchline" : 				{
					"destination" : [ "obj-21", 0 ],
					"disabled" : 0,
					"hidden" : 0,
					"source" : [ "obj-29", 0 ]
				}

			}
, 			{
				"patchline" : 				{
					"destination" : [ "obj-5", 0 ],
					"disabled" : 0,
					"hidden" : 0,
					"source" : [ "obj-3", 0 ]
				}

			}
, 			{
				"patchline" : 				{
					"destination" : [ "obj-5", 1 ],
					"disabled" : 0,
					"hidden" : 0,
					"source" : [ "obj-30", 0 ]
				}

			}
, 			{
				"patchline" : 				{
					"destination" : [ "obj-11", 1 ],
					"disabled" : 0,
					"hidden" : 0,
					"source" : [ "obj-31", 0 ]
				}

			}
, 			{
				"patchline" : 				{
					"destination" : [ "obj-13", 1 ],
					"disabled" : 0,
					"hidden" : 0,
					"source" : [ "obj-32", 0 ]
				}

			}
, 			{
				"patchline" : 				{
					"destination" : [ "obj-15", 1 ],
					"disabled" : 0,
					"hidden" : 0,
					"source" : [ "obj-33", 0 ]
				}

			}
, 			{
				"patchline" : 				{
					"destination" : [ "obj-17", 1 ],
					"disabled" : 0,
					"hidden" : 0,
					"source" : [ "obj-34", 0 ]
				}

			}
, 			{
				"patchline" : 				{
					"destination" : [ "obj-20", 1 ],
					"disabled" : 0,
					"hidden" : 0,
					"source" : [ "obj-35", 0 ]
				}

			}
, 			{
				"patchline" : 				{
					"destination" : [ "obj-21", 1 ],
					"disabled" : 0,
					"hidden" : 0,
					"source" : [ "obj-36", 0 ]
				}

			}
, 			{
				"patchline" : 				{
					"destination" : [ "obj-5", 2 ],
					"disabled" : 0,
					"hidden" : 0,
					"source" : [ "obj-37", 0 ]
				}

			}
, 			{
				"patchline" : 				{
					"destination" : [ "obj-46", 0 ],
					"disabled" : 0,
					"hidden" : 0,
					"source" : [ "obj-38", 0 ]
				}

			}
, 			{
				"patchline" : 				{
					"destination" : [ "obj-53", 0 ],
					"disabled" : 0,
					"hidden" : 0,
					"source" : [ "obj-38", 0 ]
				}

			}
, 			{
				"patchline" : 				{
					"destination" : [ "obj-54", 0 ],
					"disabled" : 0,
					"hidden" : 0,
					"source" : [ "obj-38", 0 ]
				}

			}
, 			{
				"patchline" : 				{
					"destination" : [ "obj-55", 0 ],
					"disabled" : 0,
					"hidden" : 0,
					"source" : [ "obj-38", 0 ]
				}

			}
, 			{
				"patchline" : 				{
					"destination" : [ "obj-56", 0 ],
					"disabled" : 0,
					"hidden" : 0,
					"source" : [ "obj-38", 0 ]
				}

			}
, 			{
				"patchline" : 				{
					"destination" : [ "obj-57", 0 ],
					"disabled" : 0,
					"hidden" : 0,
					"source" : [ "obj-38", 0 ]
				}

			}
, 			{
				"patchline" : 				{
					"destination" : [ "obj-58", 0 ],
					"disabled" : 0,
					"hidden" : 0,
					"source" : [ "obj-38", 0 ]
				}

			}
, 			{
				"patchline" : 				{
					"destination" : [ "obj-11", 2 ],
					"disabled" : 0,
					"hidden" : 0,
					"source" : [ "obj-39", 0 ]
				}

			}
, 			{
				"patchline" : 				{
					"destination" : [ "obj-11", 0 ],
					"disabled" : 0,
					"hidden" : 0,
					"source" : [ "obj-4", 0 ]
				}

			}
, 			{
				"patchline" : 				{
					"destination" : [ "obj-13", 2 ],
					"disabled" : 0,
					"hidden" : 0,
					"source" : [ "obj-40", 0 ]
				}

			}
, 			{
				"patchline" : 				{
					"destination" : [ "obj-15", 2 ],
					"disabled" : 0,
					"hidden" : 0,
					"source" : [ "obj-41", 0 ]
				}

			}
, 			{
				"patchline" : 				{
					"destination" : [ "obj-17", 2 ],
					"disabled" : 0,
					"hidden" : 0,
					"source" : [ "obj-42", 0 ]
				}

			}
, 			{
				"patchline" : 				{
					"destination" : [ "obj-20", 2 ],
					"disabled" : 0,
					"hidden" : 0,
					"source" : [ "obj-43", 0 ]
				}

			}
, 			{
				"patchline" : 				{
					"destination" : [ "obj-21", 2 ],
					"disabled" : 0,
					"hidden" : 0,
					"source" : [ "obj-44", 0 ]
				}

			}
, 			{
				"patchline" : 				{
					"destination" : [ "obj-5", 3 ],
					"disabled" : 0,
					"hidden" : 0,
					"source" : [ "obj-45", 0 ]
				}

			}
, 			{
				"patchline" : 				{
					"destination" : [ "obj-11", 3 ],
					"disabled" : 0,
					"hidden" : 0,
					"source" : [ "obj-47", 0 ]
				}

			}
, 			{
				"patchline" : 				{
					"destination" : [ "obj-13", 3 ],
					"disabled" : 0,
					"hidden" : 0,
					"source" : [ "obj-48", 0 ]
				}

			}
, 			{
				"patchline" : 				{
					"destination" : [ "obj-15", 3 ],
					"disabled" : 0,
					"hidden" : 0,
					"source" : [ "obj-49", 0 ]
				}

			}
, 			{
				"patchline" : 				{
					"destination" : [ "obj-18", 0 ],
					"disabled" : 0,
					"hidden" : 0,
					"source" : [ "obj-5", 0 ]
				}

			}
, 			{
				"patchline" : 				{
					"destination" : [ "obj-17", 3 ],
					"disabled" : 0,
					"hidden" : 0,
					"source" : [ "obj-50", 0 ]
				}

			}
, 			{
				"patchline" : 				{
					"destination" : [ "obj-20", 3 ],
					"disabled" : 0,
					"hidden" : 0,
					"source" : [ "obj-51", 0 ]
				}

			}
, 			{
				"patchline" : 				{
					"destination" : [ "obj-21", 3 ],
					"disabled" : 0,
					"hidden" : 0,
					"source" : [ "obj-52", 0 ]
				}

			}
, 			{
				"patchline" : 				{
					"destination" : [ "obj-13", 0 ],
					"disabled" : 0,
					"hidden" : 0,
					"source" : [ "obj-6", 0 ]
				}

			}
, 			{
				"patchline" : 				{
					"destination" : [ "obj-59", 0 ],
					"disabled" : 0,
					"hidden" : 0,
					"source" : [ "obj-61", 0 ]
				}

			}
, 			{
				"patchline" : 				{
					"destination" : [ "obj-15", 0 ],
					"disabled" : 0,
					"hidden" : 0,
					"source" : [ "obj-7", 0 ]
				}

			}
 ],
		"parameters" : 		{
			"obj-18::obj-4" : [ "master[1]", "master", 0 ],
			"obj-18::obj-15" : [ "toggle", "toggle", 0 ],
			"obj-18::obj-9" : [ "range[4]", "range", 0 ],
			"obj-18::obj-35" : [ "master", "master", 0 ],
			"obj-18::obj-102" : [ "pictctrl[41]", "pictctrl[1]", 0 ]
		}
,
		"dependency_cache" : [ 			{
				"name" : "az.hemi-m.maxpat",
				"bootpath" : "~/Documents/Max 7/Packages/auzzie/patchers",
				"type" : "JSON",
				"implicit" : 1
			}
, 			{
				"name" : "az.data-handler.maxpat",
				"bootpath" : "~/Documents/Max 7/Packages/auzzie/patchers",
				"type" : "JSON",
				"implicit" : 1
			}
, 			{
				"name" : "az.audio-left-handler.maxpat",
				"bootpath" : "~/Documents/Max 7/Packages/auzzie/patchers",
				"type" : "JSON",
				"implicit" : 1
			}
, 			{
				"name" : "az.sub-hemi-prefs.maxpat",
				"bootpath" : "~/Documents/Max 7/Packages/auzzie/patchers",
				"type" : "JSON",
				"implicit" : 1
			}
, 			{
				"name" : "hemi-prefs.txt",
				"bootpath" : "~/lork/repertoire/why-is-it-dancing",
				"type" : "TEXT",
				"implicit" : 1
			}
, 			{
				"name" : "player.maxpat",
				"bootpath" : "~/lork/repertoire/why-is-it-dancing",
				"type" : "JSON",
				"implicit" : 1
			}
, 			{
				"name" : "grooveduck.maxpat",
				"bootpath" : "/Users/Shared/Max 7/Examples/sequencing-looping/audio-rate-sequencing-looping/lib",
				"type" : "JSON",
				"implicit" : 1
			}
, 			{
				"name" : "time-display.maxpat",
				"bootpath" : "~/lork/repertoire/why-is-it-dancing",
				"type" : "JSON",
				"implicit" : 1
			}
, 			{
				"name" : "buffers.maxpat",
				"bootpath" : "~/lork/repertoire/why-is-it-dancing",
				"type" : "JSON",
				"implicit" : 1
			}
, 			{
				"name" : "jg.bufpath.maxpat",
				"bootpath" : "~/lork/repertoire/why-is-it-dancing",
				"type" : "JSON",
				"implicit" : 1
			}
 ],
		"autosave" : 0
	}

}
