{
	"patcher" : 	{
		"fileversion" : 1,
		"appversion" : 		{
			"major" : 7,
			"minor" : 2,
			"revision" : 4,
			"architecture" : "x86",
			"modernui" : 1
		}
,
		"rect" : [ 175.0, 87.0, 1023.0, 631.0 ],
		"bglocked" : 0,
		"openinpresentation" : 1,
		"default_fontsize" : 12.0,
		"default_fontface" : 0,
		"default_fontname" : "Arial",
		"gridonopen" : 1,
		"gridsize" : [ 15.0, 15.0 ],
		"gridsnaponopen" : 1,
		"objectsnaponopen" : 1,
		"statusbarvisible" : 2,
		"toolbarvisible" : 1,
		"lefttoolbarpinned" : 0,
		"toptoolbarpinned" : 0,
		"righttoolbarpinned" : 0,
		"bottomtoolbarpinned" : 0,
		"toolbars_unpinned_last_save" : 0,
		"tallnewobj" : 0,
		"boxanimatetime" : 200,
		"enablehscroll" : 1,
		"enablevscroll" : 1,
		"devicewidth" : 0.0,
		"description" : "",
		"digest" : "",
		"tags" : "",
		"style" : "",
		"subpatcher_template" : "",
		"boxes" : [ 			{
				"box" : 				{
					"id" : "obj-12",
					"maxclass" : "message",
					"numinlets" : 2,
					"numoutlets" : 1,
					"outlettype" : [ "" ],
					"patching_rect" : [ 488.75, 422.0, 29.5, 22.0 ],
					"style" : "",
					"text" : "0."
				}

			}
, 			{
				"box" : 				{
					"id" : "obj-11",
					"maxclass" : "message",
					"numinlets" : 2,
					"numoutlets" : 1,
					"outlettype" : [ "" ],
					"patching_rect" : [ 322.0, 474.0, 29.5, 22.0 ],
					"style" : "",
					"text" : "0.5"
				}

			}
, 			{
				"box" : 				{
					"id" : "obj-5",
					"maxclass" : "newobj",
					"numinlets" : 1,
					"numoutlets" : 1,
					"outlettype" : [ "bang" ],
					"patching_rect" : [ 318.0, 436.0, 60.0, 22.0 ],
					"style" : "",
					"text" : "loadbang"
				}

			}
, 			{
				"box" : 				{
					"id" : "obj-28",
					"maxclass" : "newobj",
					"numinlets" : 2,
					"numoutlets" : 2,
					"outlettype" : [ "bang", "" ],
					"patching_rect" : [ 939.0, 132.0, 43.0, 22.0 ],
					"style" : "",
					"text" : "sel 32"
				}

			}
, 			{
				"box" : 				{
					"id" : "obj-22",
					"maxclass" : "newobj",
					"numinlets" : 0,
					"numoutlets" : 4,
					"outlettype" : [ "int", "int", "int", "int" ],
					"patching_rect" : [ 939.0, 98.0, 50.5, 22.0 ],
					"style" : "",
					"text" : "key"
				}

			}
, 			{
				"box" : 				{
					"fontname" : "Arial",
					"fontsize" : 29.786608,
					"id" : "obj-40",
					"maxclass" : "comment",
					"numinlets" : 1,
					"numoutlets" : 0,
					"patching_rect" : [ 279.0, 73.0, 392.0, 40.0 ],
					"presentation" : 1,
					"presentation_rect" : [ 47.5, 167.0, 407.0, 40.0 ],
					"style" : "",
					"text" : "Spacebar = Start/Stop player"
				}

			}
, 			{
				"box" : 				{
					"id" : "obj-25",
					"linecount" : 2,
					"maxclass" : "comment",
					"numinlets" : 1,
					"numoutlets" : 0,
					"patching_rect" : [ 494.5, 301.5, 150.0, 33.0 ],
					"presentation" : 1,
					"presentation_rect" : [ 239.5, 374.5, 182.0, 20.0 ],
					"style" : "",
					"text" : "Drivr (controlled by PLAYR 4)"
				}

			}
, 			{
				"box" : 				{
					"id" : "obj-23",
					"maxclass" : "comment",
					"numinlets" : 1,
					"numoutlets" : 0,
					"patching_rect" : [ 420.0, 62.0, 160.0, 20.0 ],
					"presentation" : 1,
					"presentation_rect" : [ 399.0, 59.0, 160.0, 20.0 ],
					"style" : "",
					"text" : "Long Tone - Throat Singing"
				}

			}
, 			{
				"box" : 				{
					"format" : 6,
					"id" : "obj-9",
					"maxclass" : "flonum",
					"numinlets" : 1,
					"numoutlets" : 2,
					"outlettype" : [ "", "bang" ],
					"parameter_enable" : 0,
					"patching_rect" : [ 530.5, 406.0, 50.0, 22.0 ],
					"style" : ""
				}

			}
, 			{
				"box" : 				{
					"format" : 6,
					"id" : "obj-26",
					"maxclass" : "flonum",
					"numinlets" : 1,
					"numoutlets" : 2,
					"outlettype" : [ "", "bang" ],
					"parameter_enable" : 0,
					"patching_rect" : [ 431.5, 398.0, 50.0, 22.0 ],
					"style" : ""
				}

			}
, 			{
				"box" : 				{
					"annotation" : "## An overdrive distortion processor ##",
					"bgmode" : 1,
					"border" : 0,
					"clickthrough" : 0,
					"enablehscroll" : 0,
					"enablevscroll" : 0,
					"id" : "obj-2",
					"lockeddragscroll" : 0,
					"maxclass" : "bpatcher",
					"name" : "az.drivr.maxpat",
					"numinlets" : 4,
					"numoutlets" : 1,
					"offset" : [ 0.0, 0.0 ],
					"outlettype" : [ "signal" ],
					"patching_rect" : [ 390.0, 457.0, 144.0, 111.0 ],
					"presentation" : 1,
					"presentation_rect" : [ 250.0, 398.0, 144.0, 111.0 ],
					"prototypename" : "pixl",
					"varname" : "drivr",
					"viewvisibility" : 1
				}

			}
, 			{
				"box" : 				{
					"id" : "obj-21",
					"maxclass" : "newobj",
					"numinlets" : 2,
					"numoutlets" : 2,
					"outlettype" : [ "", "" ],
					"patching_rect" : [ 537.0, 366.0, 115.0, 22.0 ],
					"style" : "",
					"text" : "route P3drivrwetdry"
				}

			}
, 			{
				"box" : 				{
					"id" : "obj-7",
					"maxclass" : "newobj",
					"numinlets" : 2,
					"numoutlets" : 2,
					"outlettype" : [ "", "" ],
					"patching_rect" : [ 431.5, 366.0, 102.0, 22.0 ],
					"style" : "",
					"text" : "route P3drivrtime"
				}

			}
, 			{
				"box" : 				{
					"id" : "obj-14",
					"maxclass" : "newobj",
					"numinlets" : 1,
					"numoutlets" : 1,
					"outlettype" : [ "" ],
					"patching_rect" : [ 381.0, 294.0, 99.0, 22.0 ],
					"style" : "",
					"text" : "udpreceive 8000"
				}

			}
, 			{
				"box" : 				{
					"id" : "obj-8",
					"maxclass" : "message",
					"numinlets" : 2,
					"numoutlets" : 1,
					"outlettype" : [ "" ],
					"patching_rect" : [ 637.5, 91.0, 95.0, 22.0 ],
					"style" : "",
					"text" : "read playr3.wav"
				}

			}
, 			{
				"box" : 				{
					"id" : "obj-6",
					"maxclass" : "newobj",
					"numinlets" : 1,
					"numoutlets" : 1,
					"outlettype" : [ "bang" ],
					"patching_rect" : [ 637.5, 61.0, 60.0, 22.0 ],
					"style" : "",
					"text" : "loadbang"
				}

			}
, 			{
				"box" : 				{
					"fontname" : "Arial",
					"fontsize" : 29.786608,
					"id" : "obj-19",
					"maxclass" : "comment",
					"numinlets" : 1,
					"numoutlets" : 0,
					"patching_rect" : [ 16.0, 248.5, 284.0, 40.0 ],
					"presentation" : 1,
					"presentation_rect" : [ 583.0, 425.0, 196.0, 40.0 ],
					"style" : "",
					"text" : "RZ ~ volume"
				}

			}
, 			{
				"box" : 				{
					"fontname" : "Arial",
					"fontsize" : 29.786608,
					"id" : "obj-17",
					"maxclass" : "comment",
					"numinlets" : 1,
					"numoutlets" : 0,
					"patching_rect" : [ 16.0, 145.0, 290.0, 40.0 ],
					"presentation" : 1,
					"presentation_rect" : [ 574.0, 383.0, 233.0, 40.0 ],
					"style" : "",
					"text" : "LZ ~ speed/pitch"
				}

			}
, 			{
				"box" : 				{
					"fontname" : "Arial",
					"fontsize" : 29.786608,
					"id" : "obj-16",
					"maxclass" : "comment",
					"numinlets" : 1,
					"numoutlets" : 0,
					"patching_rect" : [ 420.0, 20.0, 167.0, 40.0 ],
					"presentation" : 1,
					"presentation_rect" : [ 399.0, 17.0, 167.0, 40.0 ],
					"style" : "",
					"text" : "PLAYR 3"
				}

			}
, 			{
				"box" : 				{
					"id" : "obj-37",
					"maxclass" : "newobj",
					"numinlets" : 5,
					"numoutlets" : 4,
					"outlettype" : [ "int", "", "", "int" ],
					"patching_rect" : [ 934.166687, 179.000015, 71.0, 22.0 ],
					"style" : "",
					"text" : "counter 0 1"
				}

			}
, 			{
				"box" : 				{
					"id" : "obj-34",
					"maxclass" : "number",
					"numinlets" : 1,
					"numoutlets" : 2,
					"outlettype" : [ "", "bang" ],
					"parameter_enable" : 0,
					"patching_rect" : [ 934.166687, 214.666672, 50.0, 22.0 ],
					"style" : ""
				}

			}
, 			{
				"box" : 				{
					"id" : "obj-20",
					"maxclass" : "newobj",
					"numinlets" : 6,
					"numoutlets" : 1,
					"outlettype" : [ "" ],
					"patching_rect" : [ 798.25, 291.0, 96.0, 22.0 ],
					"style" : "",
					"text" : "scale 1. 0. -70 0"
				}

			}
, 			{
				"box" : 				{
					"id" : "obj-18",
					"maxclass" : "newobj",
					"numinlets" : 6,
					"numoutlets" : 1,
					"outlettype" : [ "" ],
					"patching_rect" : [ 693.5, 291.0, 99.0, 22.0 ],
					"style" : "",
					"text" : "scale 1. 0. 0.5 1."
				}

			}
, 			{
				"box" : 				{
					"annotation" : "## Data input from Gametrak tether controller ##",
					"bgmode" : 1,
					"border" : 0,
					"clickthrough" : 0,
					"enablehscroll" : 0,
					"enablevscroll" : 0,
					"id" : "obj-4",
					"lockeddragscroll" : 0,
					"maxclass" : "bpatcher",
					"name" : "az.gametrakr.maxpat",
					"numinlets" : 2,
					"numoutlets" : 7,
					"offset" : [ 0.0, 0.0 ],
					"outlettype" : [ "", "", "", "", "", "", "" ],
					"patching_rect" : [ 702.5, 122.0, 208.0, 158.0 ],
					"presentation" : 1,
					"presentation_rect" : [ 586.5, 216.0, 208.0, 158.0 ],
					"prototypename" : "pixl",
					"varname" : "gametrakr",
					"viewvisibility" : 1
				}

			}
, 			{
				"box" : 				{
					"annotation" : "## A sound file player ##",
					"bgmode" : 1,
					"border" : 0,
					"clickthrough" : 0,
					"enablehscroll" : 0,
					"enablevscroll" : 0,
					"id" : "obj-3",
					"lockeddragscroll" : 0,
					"maxclass" : "bpatcher",
					"name" : "az.aplayr.maxpat",
					"numinlets" : 8,
					"numoutlets" : 3,
					"offset" : [ 0.0, 0.0 ],
					"outlettype" : [ "signal", "signal", "" ],
					"patching_rect" : [ 314.5, 122.0, 378.0, 159.0 ],
					"presentation" : 1,
					"presentation_rect" : [ 59.5, 212.0, 378.0, 159.0 ],
					"prototypename" : "pixl",
					"varname" : "aplayr",
					"viewvisibility" : 1
				}

			}
, 			{
				"box" : 				{
					"annotation" : "## Mono output fader for hemispherical speakers ##",
					"bgmode" : 1,
					"border" : 0,
					"clickthrough" : 0,
					"enablehscroll" : 0,
					"enablevscroll" : 0,
					"id" : "obj-1",
					"lockeddragscroll" : 0,
					"maxclass" : "bpatcher",
					"name" : "az.hemi-m.maxpat",
					"numinlets" : 2,
					"numoutlets" : 0,
					"offset" : [ 0.0, 0.0 ],
					"patching_rect" : [ 781.166687, 320.0, 71.0, 292.0 ],
					"presentation" : 1,
					"presentation_rect" : [ 439.5, 212.0, 71.0, 292.0 ],
					"prototypename" : "pixl",
					"varname" : "hemi-m",
					"viewvisibility" : 1
				}

			}
 ],
		"lines" : [ 			{
				"patchline" : 				{
					"destination" : [ "obj-2", 1 ],
					"disabled" : 0,
					"hidden" : 0,
					"source" : [ "obj-11", 0 ]
				}

			}
, 			{
				"patchline" : 				{
					"destination" : [ "obj-2", 3 ],
					"disabled" : 0,
					"hidden" : 0,
					"source" : [ "obj-12", 0 ]
				}

			}
, 			{
				"patchline" : 				{
					"destination" : [ "obj-21", 0 ],
					"disabled" : 0,
					"hidden" : 0,
					"source" : [ "obj-14", 0 ]
				}

			}
, 			{
				"patchline" : 				{
					"destination" : [ "obj-7", 0 ],
					"disabled" : 0,
					"hidden" : 0,
					"source" : [ "obj-14", 0 ]
				}

			}
, 			{
				"patchline" : 				{
					"destination" : [ "obj-3", 0 ],
					"disabled" : 0,
					"hidden" : 0,
					"source" : [ "obj-18", 0 ]
				}

			}
, 			{
				"patchline" : 				{
					"destination" : [ "obj-1", 0 ],
					"disabled" : 0,
					"hidden" : 0,
					"source" : [ "obj-2", 0 ]
				}

			}
, 			{
				"patchline" : 				{
					"destination" : [ "obj-1", 1 ],
					"disabled" : 0,
					"hidden" : 0,
					"source" : [ "obj-20", 0 ]
				}

			}
, 			{
				"patchline" : 				{
					"destination" : [ "obj-9", 0 ],
					"disabled" : 0,
					"hidden" : 0,
					"source" : [ "obj-21", 0 ]
				}

			}
, 			{
				"patchline" : 				{
					"destination" : [ "obj-28", 0 ],
					"disabled" : 0,
					"hidden" : 0,
					"source" : [ "obj-22", 0 ]
				}

			}
, 			{
				"patchline" : 				{
					"destination" : [ "obj-2", 2 ],
					"disabled" : 0,
					"hidden" : 0,
					"source" : [ "obj-26", 0 ]
				}

			}
, 			{
				"patchline" : 				{
					"destination" : [ "obj-37", 0 ],
					"disabled" : 0,
					"hidden" : 0,
					"source" : [ "obj-28", 0 ]
				}

			}
, 			{
				"patchline" : 				{
					"destination" : [ "obj-2", 0 ],
					"disabled" : 0,
					"hidden" : 0,
					"source" : [ "obj-3", 0 ]
				}

			}
, 			{
				"patchline" : 				{
					"destination" : [ "obj-3", 4 ],
					"disabled" : 0,
					"hidden" : 0,
					"source" : [ "obj-34", 0 ]
				}

			}
, 			{
				"patchline" : 				{
					"destination" : [ "obj-34", 0 ],
					"disabled" : 0,
					"hidden" : 0,
					"source" : [ "obj-37", 0 ]
				}

			}
, 			{
				"patchline" : 				{
					"destination" : [ "obj-18", 0 ],
					"disabled" : 0,
					"hidden" : 0,
					"source" : [ "obj-4", 2 ]
				}

			}
, 			{
				"patchline" : 				{
					"destination" : [ "obj-20", 0 ],
					"disabled" : 0,
					"hidden" : 0,
					"source" : [ "obj-4", 5 ]
				}

			}
, 			{
				"patchline" : 				{
					"destination" : [ "obj-11", 0 ],
					"disabled" : 0,
					"hidden" : 0,
					"source" : [ "obj-5", 0 ]
				}

			}
, 			{
				"patchline" : 				{
					"destination" : [ "obj-12", 0 ],
					"disabled" : 0,
					"hidden" : 0,
					"source" : [ "obj-5", 0 ]
				}

			}
, 			{
				"patchline" : 				{
					"destination" : [ "obj-8", 0 ],
					"disabled" : 0,
					"hidden" : 0,
					"source" : [ "obj-6", 0 ]
				}

			}
, 			{
				"patchline" : 				{
					"destination" : [ "obj-26", 0 ],
					"disabled" : 0,
					"hidden" : 0,
					"source" : [ "obj-7", 0 ]
				}

			}
, 			{
				"patchline" : 				{
					"destination" : [ "obj-3", 7 ],
					"disabled" : 0,
					"hidden" : 0,
					"source" : [ "obj-8", 0 ]
				}

			}
, 			{
				"patchline" : 				{
					"destination" : [ "obj-2", 3 ],
					"disabled" : 0,
					"hidden" : 0,
					"source" : [ "obj-9", 0 ]
				}

			}
 ],
		"parameters" : 		{
			"obj-1::obj-9" : [ "range[4]", "range", 0 ],
			"obj-3::obj-126" : [ "lowhigh", "lowhigh", 0 ],
			"obj-3::obj-125" : [ "speed", "speed", 0 ],
			"obj-3::obj-122" : [ "pictctrl[2]", "pictctrl[1]", 0 ],
			"obj-3::obj-94" : [ "pictctrl[280]", "pictctrl[1]", 0 ],
			"obj-3::obj-145" : [ "waveform-cursor-mode", "wf-cursor-mode", 0 ],
			"obj-3::obj-137" : [ "reset-loop", "reset-loop", 0 ],
			"obj-4::obj-265" : [ "pictctrl[40]", "pictctrl[3]", 0 ],
			"obj-3::obj-96" : [ "pictctrl[281]", "pictctrl[1]", 0 ],
			"obj-3::obj-86" : [ "transp", "transp", 0 ],
			"obj-3::obj-60" : [ "pictctrl[4]", "pictctrl[1]", 0 ],
			"obj-4::obj-278" : [ "module-xable", "module-xable", 0 ],
			"obj-2::obj-9" : [ "drive", "drive", 0 ],
			"obj-3::obj-278" : [ "textbutton[3]", "textbutton[1]", 0 ],
			"obj-2::obj-20" : [ "pictctrl[8]", "pictctrl[1]", 0 ],
			"obj-1::obj-4" : [ "master[1]", "master", 0 ],
			"obj-3::obj-136" : [ "pictctrl[3]", "pictctrl[1]", 0 ],
			"obj-3::obj-97" : [ "pictctrl[282]", "pictctrl[1]", 0 ],
			"obj-3::obj-48" : [ "reset-zoom", "reset-zoom", 0 ],
			"obj-3::obj-101" : [ "pictctrl[283]", "pictctrl[1]", 0 ],
			"obj-3::obj-127" : [ "speed[1]", "speed", 0 ],
			"obj-1::obj-102" : [ "pictctrl[284]", "pictctrl[1]", 0 ],
			"obj-3::obj-121" : [ "pictctrl[1]", "pictctrl[1]", 0 ],
			"obj-2::obj-24" : [ "wetdry", "wetdry", 0 ],
			"obj-2::obj-48" : [ "pictctrl[7]", "pictctrl[2]", 0 ],
			"obj-4::obj-21" : [ "pictctrl[6]", "pictctrl[1]", 0 ],
			"obj-1::obj-35" : [ "master", "master", 0 ],
			"obj-1::obj-15" : [ "toggle", "toggle", 0 ],
			"obj-2::obj-53" : [ "pictctrl", "pictctrl", 0 ],
			"obj-3::obj-102" : [ "pictctrl[5]", "pictctrl[1]", 0 ],
			"obj-3::obj-106" : [ "textbutton", "textbutton", 0 ],
			"obj-2::obj-7" : [ "range[1]", "range", 0 ],
			"obj-4::obj-50" : [ "sensitivity", "sensitivity", 0 ],
			"obj-2::obj-10" : [ "color", "color", 0 ]
		}
,
		"dependency_cache" : [ 			{
				"name" : "az.hemi-m.maxpat",
				"bootpath" : "~/Documents/Max 7/Packages/auzzie/patchers",
				"type" : "JSON",
				"implicit" : 1
			}
, 			{
				"name" : "az.data-handler.maxpat",
				"bootpath" : "~/Documents/Max 7/Packages/auzzie/patchers",
				"type" : "JSON",
				"implicit" : 1
			}
, 			{
				"name" : "az.audio-left-handler.maxpat",
				"bootpath" : "~/Documents/Max 7/Packages/auzzie/patchers",
				"type" : "JSON",
				"implicit" : 1
			}
, 			{
				"name" : "az.sub-hemi-prefs.maxpat",
				"bootpath" : "~/Documents/Max 7/Packages/auzzie/patchers",
				"type" : "JSON",
				"implicit" : 1
			}
, 			{
				"name" : "hemi-prefs.txt",
				"bootpath" : "~/Desktop/go-far-away v.2",
				"type" : "TEXT",
				"implicit" : 1
			}
, 			{
				"name" : "az.aplayr.maxpat",
				"bootpath" : "~/Documents/Max 7/Packages/auzzie/patchers",
				"type" : "JSON",
				"implicit" : 1
			}
, 			{
				"name" : "az.sub-player.maxpat",
				"bootpath" : "~/Documents/Max 7/Packages/auzzie/patchers",
				"type" : "JSON",
				"implicit" : 1
			}
, 			{
				"name" : "grooveduck2.maxpat",
				"bootpath" : "/Users/Shared/Max 7/Examples/sequencing-looping/audio-rate-sequencing-looping/lib",
				"type" : "JSON",
				"implicit" : 1
			}
, 			{
				"name" : "az.waveform-modes.png",
				"bootpath" : "~/Documents/Max 7/Packages/auzzie/media",
				"type" : "PNG ",
				"implicit" : 1
			}
, 			{
				"name" : "az.waveform-knob.png",
				"bootpath" : "~/Documents/Max 7/Packages/auzzie/media",
				"type" : "PNG ",
				"implicit" : 1
			}
, 			{
				"name" : "az.sub-change-str.maxpat",
				"bootpath" : "~/Documents/Max 7/Packages/auzzie/patchers",
				"type" : "JSON",
				"implicit" : 1
			}
, 			{
				"name" : "az.gametrakr.maxpat",
				"bootpath" : "~/Documents/Max 7/Packages/auzzie/patchers",
				"type" : "JSON",
				"implicit" : 1
			}
, 			{
				"name" : "az.sub-gametrak-calibrate.maxpat",
				"bootpath" : "~/Documents/Max 7/Packages/auzzie/patchers",
				"type" : "JSON",
				"implicit" : 1
			}
, 			{
				"name" : "gametrak-calibration.txt",
				"bootpath" : "~/Desktop/go-far-away v.2",
				"type" : "TEXT",
				"implicit" : 1
			}
, 			{
				"name" : "az.drivr.maxpat",
				"bootpath" : "~/Documents/Max 7/Packages/auzzie/patchers",
				"type" : "JSON",
				"implicit" : 1
			}
, 			{
				"name" : "M4L.cross1~.maxpat",
				"bootpath" : "C74:/patchers/m4l/Tools resources",
				"type" : "JSON",
				"implicit" : 1
			}
 ],
		"autosave" : 0
	}

}
