{
	"patcher" : 	{
		"fileversion" : 1,
		"appversion" : 		{
			"major" : 7,
			"minor" : 2,
			"revision" : 4,
			"architecture" : "x64",
			"modernui" : 1
		}
,
		"rect" : [ 299.0, 121.0, 819.0, 440.0 ],
		"bglocked" : 0,
		"openinpresentation" : 1,
		"default_fontsize" : 12.0,
		"default_fontface" : 0,
		"default_fontname" : "Arial",
		"gridonopen" : 1,
		"gridsize" : [ 15.0, 15.0 ],
		"gridsnaponopen" : 1,
		"objectsnaponopen" : 1,
		"statusbarvisible" : 2,
		"toolbarvisible" : 1,
		"lefttoolbarpinned" : 0,
		"toptoolbarpinned" : 0,
		"righttoolbarpinned" : 0,
		"bottomtoolbarpinned" : 0,
		"toolbars_unpinned_last_save" : 0,
		"tallnewobj" : 0,
		"boxanimatetime" : 200,
		"enablehscroll" : 1,
		"enablevscroll" : 1,
		"devicewidth" : 0.0,
		"description" : "",
		"digest" : "",
		"tags" : "",
		"style" : "",
		"subpatcher_template" : "",
		"boxes" : [ 			{
				"box" : 				{
					"id" : "obj-70",
					"linecount" : 2,
					"maxclass" : "comment",
					"numinlets" : 1,
					"numoutlets" : 0,
					"patching_rect" : [ 640.0, 44.0, 150.0, 34.0 ],
					"presentation" : 1,
					"presentation_linecount" : 2,
					"presentation_rect" : [ 581.0, 31.0, 150.0, 34.0 ],
					"style" : "",
					"text" : "'q' for independence from master pulse"
				}

			}
, 			{
				"box" : 				{
					"id" : "obj-44",
					"maxclass" : "newobj",
					"numinlets" : 2,
					"numoutlets" : 1,
					"outlettype" : [ "" ],
					"patching_rect" : [ 289.0, 178.0, 34.0, 22.0 ],
					"style" : "",
					"text" : "gate"
				}

			}
, 			{
				"box" : 				{
					"id" : "obj-42",
					"maxclass" : "toggle",
					"numinlets" : 1,
					"numoutlets" : 1,
					"outlettype" : [ "int" ],
					"parameter_enable" : 0,
					"patching_rect" : [ 314.0, 143.0, 24.0, 24.0 ],
					"presentation" : 1,
					"presentation_rect" : [ 738.0, 36.0, 24.0, 24.0 ],
					"style" : ""
				}

			}
, 			{
				"box" : 				{
					"id" : "obj-37",
					"maxclass" : "message",
					"numinlets" : 2,
					"numoutlets" : 1,
					"outlettype" : [ "" ],
					"patching_rect" : [ 650.0, 98.0, 50.0, 22.0 ],
					"style" : "",
					"text" : "113"
				}

			}
, 			{
				"box" : 				{
					"id" : "obj-48",
					"maxclass" : "comment",
					"numinlets" : 1,
					"numoutlets" : 0,
					"patching_rect" : [ 587.0, 297.0, 150.0, 20.0 ],
					"presentation" : 1,
					"presentation_rect" : [ 586.0, 300.0, 150.0, 20.0 ],
					"style" : "",
					"text" : "freq"
				}

			}
, 			{
				"box" : 				{
					"id" : "obj-47",
					"maxclass" : "comment",
					"numinlets" : 1,
					"numoutlets" : 0,
					"patching_rect" : [ 415.0, 306.0, 150.0, 20.0 ],
					"presentation" : 1,
					"presentation_rect" : [ 392.0, 300.0, 150.0, 20.0 ],
					"style" : "",
					"text" : "freq"
				}

			}
, 			{
				"box" : 				{
					"id" : "obj-45",
					"linecount" : 3,
					"maxclass" : "comment",
					"numinlets" : 1,
					"numoutlets" : 0,
					"patching_rect" : [ 481.0, 356.0, 150.0, 48.0 ],
					"presentation" : 1,
					"presentation_linecount" : 3,
					"presentation_rect" : [ 450.0, 344.0, 150.0, 48.0 ],
					"style" : "",
					"text" : "16 beat bar, each value in table is the probability the synth will fire on that beat"
				}

			}
, 			{
				"box" : 				{
					"id" : "obj-43",
					"maxclass" : "comment",
					"numinlets" : 1,
					"numoutlets" : 0,
					"patching_rect" : [ 50.0, 71.0, 150.0, 20.0 ],
					"presentation" : 1,
					"presentation_rect" : [ 43.0, 71.0, 150.0, 20.0 ],
					"style" : "",
					"text" : "'space bar' to start/stop"
				}

			}
, 			{
				"box" : 				{
					"id" : "obj-41",
					"maxclass" : "newobj",
					"numinlets" : 3,
					"numoutlets" : 3,
					"outlettype" : [ "bang", "bang", "" ],
					"patching_rect" : [ 624.0, 191.0, 65.0, 22.0 ],
					"style" : "",
					"text" : "sel 32 113"
				}

			}
, 			{
				"box" : 				{
					"id" : "obj-39",
					"maxclass" : "newobj",
					"numinlets" : 0,
					"numoutlets" : 4,
					"outlettype" : [ "int", "int", "int", "int" ],
					"patching_rect" : [ 583.0, 148.0, 50.5, 22.0 ],
					"style" : "",
					"text" : "key"
				}

			}
, 			{
				"box" : 				{
					"id" : "obj-35",
					"maxclass" : "newobj",
					"numinlets" : 6,
					"numoutlets" : 1,
					"outlettype" : [ "" ],
					"patching_rect" : [ 448.0, 199.0, 125.0, 22.0 ],
					"style" : "",
					"text" : "scale 0 127 500 1800"
				}

			}
, 			{
				"box" : 				{
					"id" : "obj-33",
					"maxclass" : "number",
					"numinlets" : 1,
					"numoutlets" : 2,
					"outlettype" : [ "", "bang" ],
					"parameter_enable" : 0,
					"patching_rect" : [ 417.0, 63.0, 50.0, 22.0 ],
					"style" : ""
				}

			}
, 			{
				"box" : 				{
					"id" : "obj-24",
					"maxclass" : "slider",
					"numinlets" : 1,
					"numoutlets" : 1,
					"outlettype" : [ "" ],
					"parameter_enable" : 0,
					"patching_rect" : [ 516.0, 14.0, 233.0, 27.0 ],
					"presentation" : 1,
					"presentation_rect" : [ 143.0, 36.0, 285.0, 20.0 ],
					"style" : ""
				}

			}
, 			{
				"box" : 				{
					"id" : "obj-40",
					"maxclass" : "comment",
					"numinlets" : 1,
					"numoutlets" : 0,
					"patching_rect" : [ 666.0, 133.0, 150.0, 20.0 ],
					"presentation" : 1,
					"presentation_rect" : [ 638.0, 116.0, 150.0, 20.0 ],
					"style" : "",
					"text" : "KICK2"
				}

			}
, 			{
				"box" : 				{
					"id" : "obj-38",
					"maxclass" : "comment",
					"numinlets" : 1,
					"numoutlets" : 0,
					"patching_rect" : [ 472.0, 110.0, 150.0, 20.0 ],
					"presentation" : 1,
					"presentation_rect" : [ 427.0, 116.0, 150.0, 20.0 ],
					"style" : "",
					"text" : "CYMBOL"
				}

			}
, 			{
				"box" : 				{
					"id" : "obj-36",
					"maxclass" : "comment",
					"numinlets" : 1,
					"numoutlets" : 0,
					"patching_rect" : [ 282.0, 107.0, 150.0, 20.0 ],
					"presentation" : 1,
					"presentation_rect" : [ 261.0, 116.0, 150.0, 20.0 ],
					"style" : "",
					"text" : "CLAP"
				}

			}
, 			{
				"box" : 				{
					"id" : "obj-34",
					"maxclass" : "comment",
					"numinlets" : 1,
					"numoutlets" : 0,
					"patching_rect" : [ 71.0, 116.0, 150.0, 20.0 ],
					"presentation" : 1,
					"presentation_rect" : [ 82.0, 120.0, 150.0, 20.0 ],
					"style" : "",
					"text" : "KICK"
				}

			}
, 			{
				"box" : 				{
					"id" : "obj-31",
					"maxclass" : "button",
					"numinlets" : 1,
					"numoutlets" : 1,
					"outlettype" : [ "bang" ],
					"patching_rect" : [ 764.0, 527.0, 24.0, 24.0 ],
					"style" : ""
				}

			}
, 			{
				"box" : 				{
					"id" : "obj-30",
					"maxclass" : "slider",
					"numinlets" : 1,
					"numoutlets" : 1,
					"outlettype" : [ "" ],
					"parameter_enable" : 0,
					"patching_rect" : [ 1276.0, 210.0, 20.0, 140.0 ],
					"presentation" : 1,
					"presentation_rect" : [ 392.0, 145.5, 19.0, 145.0 ],
					"style" : ""
				}

			}
, 			{
				"box" : 				{
					"id" : "obj-29",
					"maxclass" : "slider",
					"numinlets" : 1,
					"numoutlets" : 1,
					"outlettype" : [ "" ],
					"parameter_enable" : 0,
					"patching_rect" : [ 1337.0, 426.0, 20.0, 140.0 ],
					"presentation" : 1,
					"presentation_rect" : [ 590.0, 143.0, 20.0, 145.0 ],
					"style" : ""
				}

			}
, 			{
				"box" : 				{
					"format" : 6,
					"id" : "obj-26",
					"maxclass" : "flonum",
					"numinlets" : 1,
					"numoutlets" : 2,
					"outlettype" : [ "", "bang" ],
					"parameter_enable" : 0,
					"patching_rect" : [ 1246.0, 496.0, 50.0, 22.0 ],
					"style" : ""
				}

			}
, 			{
				"box" : 				{
					"id" : "obj-22",
					"maxclass" : "preset",
					"numinlets" : 1,
					"numoutlets" : 4,
					"outlettype" : [ "preset", "int", "preset", "int" ],
					"patching_rect" : [ 950.0, 90.0, 100.0, 40.0 ],
					"presentation" : 1,
					"presentation_rect" : [ 333.0, 348.0, 100.0, 40.0 ],
					"preset_data" : [ 						{
							"number" : 1,
							"data" : [ 21, "obj-53", "itable", "set", 0, 0, 0, 0, 0, 0, 0, 4, 4, 4, 4, 0, 0, 0, 0, 0, 0, 21, "obj-52", "itable", "set", 0, 0, 0, 0, 0, 9, 9, 0, 0, 0, 0, 9, 9, 0, 0, 0, 0, 21, "obj-51", "itable", "set", 0, 2, 3, 4, 5, 2, 3, 4, 5, 2, 3, 4, 5, 2, 3, 4, 5, 21, "obj-28", "itable", "set", 0, 4, 4, 5, 5, 4, 4, 9, 3, 3, 9, 4, 4, 5, 5, 4, 4 ]
						}
, 						{
							"number" : 2,
							"data" : [ 5, "obj-29", "slider", "float", 15.0, 5, "obj-30", "slider", "float", 12.0, 21, "obj-53", "itable", "set", 0, 0, 0, 0, 0, 0, 0, 4, 4, 4, 4, 0, 0, 0, 0, 0, 0, 21, "obj-52", "itable", "set", 0, 0, 0, 0, 0, 9, 9, 0, 0, 0, 0, 9, 9, 0, 0, 0, 0, 21, "obj-51", "itable", "set", 0, 2, 3, 4, 5, 2, 3, 4, 5, 2, 3, 4, 5, 2, 3, 4, 5, 21, "obj-28", "itable", "set", 0, 4, 4, 5, 5, 4, 4, 9, 3, 3, 9, 4, 4, 5, 5, 4, 4 ]
						}
, 						{
							"number" : 3,
							"data" : [ 5, "obj-29", "slider", "float", 15.0, 5, "obj-30", "slider", "float", 12.0, 21, "obj-53", "itable", "set", 0, 0, 0, 0, 0, 0, 0, 4, 4, 4, 4, 0, 0, 0, 0, 0, 0, 21, "obj-52", "itable", "set", 0, 0, 0, 0, 0, 9, 9, 0, 0, 0, 0, 9, 9, 0, 0, 0, 0, 21, "obj-51", "itable", "set", 0, 2, 3, 4, 5, 2, 3, 4, 5, 2, 3, 4, 5, 2, 3, 4, 5, 21, "obj-28", "itable", "set", 0, 4, 4, 5, 5, 4, 4, 9, 3, 3, 9, 4, 4, 5, 5, 4, 4 ]
						}
, 						{
							"number" : 4,
							"data" : [ 5, "obj-29", "slider", "float", 15.0, 5, "obj-30", "slider", "float", 12.0, 21, "obj-53", "itable", "set", 0, 0, 0, 0, 0, 0, 0, 4, 4, 4, 4, 0, 0, 0, 0, 0, 0, 21, "obj-52", "itable", "set", 0, 0, 0, 0, 0, 9, 9, 0, 0, 0, 0, 9, 9, 0, 0, 0, 0, 21, "obj-51", "itable", "set", 0, 2, 3, 4, 5, 2, 3, 4, 5, 2, 3, 4, 5, 2, 3, 4, 5, 21, "obj-28", "itable", "set", 0, 4, 4, 5, 5, 4, 4, 9, 3, 3, 9, 4, 4, 5, 5, 4, 4 ]
						}
, 						{
							"number" : 5,
							"data" : [ 21, "obj-53", "itable", "set", 0, 0, 0, 0, 0, 0, 0, 4, 4, 4, 4, 0, 0, 0, 0, 0, 0, 21, "obj-52", "itable", "set", 0, 0, 0, 0, 0, 9, 9, 0, 0, 0, 0, 9, 9, 0, 0, 0, 0, 21, "obj-51", "itable", "set", 0, 2, 3, 4, 5, 2, 3, 4, 5, 2, 3, 4, 5, 2, 3, 4, 5, 21, "obj-28", "itable", "set", 0, 4, 4, 5, 5, 4, 4, 9, 3, 3, 9, 4, 4, 5, 5, 4, 4 ]
						}
, 						{
							"number" : 6,
							"data" : [ 21, "obj-53", "itable", "set", 0, 0, 0, 0, 0, 0, 0, 4, 4, 4, 4, 0, 0, 0, 0, 0, 0, 21, "obj-52", "itable", "set", 0, 0, 0, 0, 0, 9, 9, 0, 0, 0, 0, 9, 9, 0, 0, 0, 0, 21, "obj-51", "itable", "set", 0, 2, 3, 4, 5, 2, 3, 4, 5, 2, 3, 4, 5, 2, 3, 4, 5, 21, "obj-28", "itable", "set", 0, 4, 4, 5, 5, 4, 4, 9, 3, 3, 9, 4, 4, 5, 5, 4, 4 ]
						}
, 						{
							"number" : 7,
							"data" : [ 5, "obj-29", "slider", "float", 15.0, 5, "obj-30", "slider", "float", 12.0, 21, "obj-53", "itable", "set", 0, 0, 0, 0, 0, 0, 0, 4, 4, 4, 4, 0, 0, 0, 0, 0, 0, 21, "obj-52", "itable", "set", 0, 0, 0, 0, 0, 9, 9, 0, 0, 0, 0, 9, 9, 0, 0, 0, 0, 21, "obj-51", "itable", "set", 0, 2, 3, 4, 5, 2, 3, 4, 5, 2, 3, 4, 5, 2, 3, 4, 5, 21, "obj-28", "itable", "set", 0, 4, 4, 5, 5, 4, 4, 9, 3, 3, 9, 4, 4, 5, 5, 4, 4 ]
						}
, 						{
							"number" : 8,
							"data" : [ 5, "obj-29", "slider", "float", 15.0, 5, "obj-30", "slider", "float", 12.0, 21, "obj-53", "itable", "set", 0, 0, 0, 0, 0, 0, 0, 4, 4, 4, 4, 0, 0, 0, 0, 0, 0, 21, "obj-52", "itable", "set", 0, 0, 0, 0, 0, 9, 9, 0, 0, 0, 0, 9, 9, 0, 0, 0, 0, 21, "obj-51", "itable", "set", 0, 2, 3, 4, 5, 2, 3, 4, 5, 2, 3, 4, 5, 2, 3, 4, 5, 21, "obj-28", "itable", "set", 0, 4, 4, 5, 5, 4, 4, 9, 3, 3, 9, 4, 4, 5, 5, 4, 4 ]
						}
 ],
					"style" : ""
				}

			}
, 			{
				"box" : 				{
					"id" : "obj-20",
					"maxclass" : "newobj",
					"numinlets" : 2,
					"numoutlets" : 1,
					"outlettype" : [ "signal" ],
					"patching_rect" : [ 1120.0, 676.0, 42.0, 22.0 ],
					"style" : "",
					"text" : "*~ 1.5"
				}

			}
, 			{
				"box" : 				{
					"id" : "obj-18",
					"maxclass" : "newobj",
					"numinlets" : 2,
					"numoutlets" : 1,
					"outlettype" : [ "signal" ],
					"patching_rect" : [ 1081.0, 572.0, 42.0, 22.0 ],
					"style" : "",
					"text" : "*~ 1.5"
				}

			}
, 			{
				"box" : 				{
					"id" : "obj-16",
					"maxclass" : "button",
					"numinlets" : 1,
					"numoutlets" : 1,
					"outlettype" : [ "bang" ],
					"patching_rect" : [ 36.0, 33.0, 24.0, 24.0 ],
					"style" : ""
				}

			}
, 			{
				"box" : 				{
					"id" : "obj-10",
					"maxclass" : "newobj",
					"numinlets" : 7,
					"numoutlets" : 1,
					"outlettype" : [ "signal" ],
					"patching_rect" : [ 1079.0, 631.0, 82.0, 22.0 ],
					"style" : "",
					"text" : "warbsynth~",
					"varname" : "warbsynth~"
				}

			}
, 			{
				"box" : 				{
					"id" : "obj-4",
					"maxclass" : "newobj",
					"numinlets" : 7,
					"numoutlets" : 1,
					"outlettype" : [ "signal" ],
					"patching_rect" : [ 905.0, 563.0, 82.0, 22.0 ],
					"style" : "",
					"text" : "clapsynth~",
					"varname" : "clapsynth~"
				}

			}
, 			{
				"box" : 				{
					"id" : "obj-25",
					"maxclass" : "message",
					"numinlets" : 2,
					"numoutlets" : 1,
					"outlettype" : [ "" ],
					"patching_rect" : [ 822.0, 676.0, 29.5, 22.0 ],
					"style" : "",
					"text" : "80"
				}

			}
, 			{
				"box" : 				{
					"id" : "obj-23",
					"maxclass" : "message",
					"numinlets" : 2,
					"numoutlets" : 1,
					"outlettype" : [ "" ],
					"patching_rect" : [ 774.0, 677.0, 29.5, 22.0 ],
					"style" : "",
					"text" : "0"
				}

			}
, 			{
				"box" : 				{
					"id" : "obj-21",
					"maxclass" : "message",
					"numinlets" : 2,
					"numoutlets" : 1,
					"outlettype" : [ "" ],
					"patching_rect" : [ 731.25, 677.0, 29.5, 22.0 ],
					"style" : "",
					"text" : "72"
				}

			}
, 			{
				"box" : 				{
					"id" : "obj-19",
					"maxclass" : "message",
					"numinlets" : 2,
					"numoutlets" : 1,
					"outlettype" : [ "" ],
					"patching_rect" : [ 680.0, 677.0, 29.5, 22.0 ],
					"style" : "",
					"text" : "31."
				}

			}
, 			{
				"box" : 				{
					"id" : "obj-17",
					"maxclass" : "message",
					"numinlets" : 2,
					"numoutlets" : 1,
					"outlettype" : [ "" ],
					"patching_rect" : [ 591.0, 661.0, 29.5, 22.0 ],
					"style" : "",
					"text" : "55"
				}

			}
, 			{
				"box" : 				{
					"id" : "obj-14",
					"maxclass" : "message",
					"numinlets" : 2,
					"numoutlets" : 1,
					"outlettype" : [ "" ],
					"patching_rect" : [ 508.0, 646.0, 29.5, 22.0 ],
					"style" : "",
					"text" : "15."
				}

			}
, 			{
				"box" : 				{
					"id" : "obj-9",
					"maxclass" : "newobj",
					"numinlets" : 1,
					"numoutlets" : 1,
					"outlettype" : [ "bang" ],
					"patching_rect" : [ 29.0, 74.0, 60.0, 22.0 ],
					"style" : "",
					"text" : "loadbang"
				}

			}
, 			{
				"box" : 				{
					"id" : "obj-8",
					"maxclass" : "newobj",
					"numinlets" : 2,
					"numoutlets" : 1,
					"outlettype" : [ "int" ],
					"patching_rect" : [ 306.0, 245.0, 31.0, 22.0 ],
					"style" : "",
					"text" : "/ 16"
				}

			}
, 			{
				"box" : 				{
					"id" : "obj-5",
					"maxclass" : "number",
					"numinlets" : 1,
					"numoutlets" : 2,
					"outlettype" : [ "", "bang" ],
					"parameter_enable" : 0,
					"patching_rect" : [ 360.0, 199.0, 50.0, 22.0 ],
					"presentation" : 1,
					"presentation_rect" : [ 82.0, 36.0, 50.0, 22.0 ],
					"style" : ""
				}

			}
, 			{
				"box" : 				{
					"id" : "obj-90",
					"maxclass" : "newobj",
					"numinlets" : 2,
					"numoutlets" : 1,
					"outlettype" : [ "signal" ],
					"patching_rect" : [ 53.0, 609.0, 42.0, 22.0 ],
					"style" : "",
					"text" : "*~ 2.5"
				}

			}
, 			{
				"box" : 				{
					"id" : "obj-89",
					"maxclass" : "newobj",
					"numinlets" : 2,
					"numoutlets" : 1,
					"outlettype" : [ "signal" ],
					"patching_rect" : [ 389.5, 654.0, 36.0, 22.0 ],
					"style" : "",
					"text" : "*~ 1."
				}

			}
, 			{
				"box" : 				{
					"id" : "obj-88",
					"maxclass" : "newobj",
					"numinlets" : 2,
					"numoutlets" : 1,
					"outlettype" : [ "signal" ],
					"patching_rect" : [ 196.0, 609.0, 70.0, 22.0 ],
					"style" : "",
					"text" : "normalize~"
				}

			}
, 			{
				"box" : 				{
					"id" : "obj-87",
					"maxclass" : "button",
					"numinlets" : 1,
					"numoutlets" : 1,
					"outlettype" : [ "bang" ],
					"patching_rect" : [ 384.0, 525.0, 24.0, 24.0 ],
					"style" : ""
				}

			}
, 			{
				"box" : 				{
					"id" : "obj-86",
					"maxclass" : "number",
					"numinlets" : 1,
					"numoutlets" : 2,
					"outlettype" : [ "", "bang" ],
					"parameter_enable" : 0,
					"patching_rect" : [ 778.0, 608.0, 50.0, 22.0 ],
					"style" : ""
				}

			}
, 			{
				"box" : 				{
					"id" : "obj-84",
					"maxclass" : "number",
					"numinlets" : 1,
					"numoutlets" : 2,
					"outlettype" : [ "", "bang" ],
					"parameter_enable" : 0,
					"patching_rect" : [ 682.0, 601.0, 50.0, 22.0 ],
					"style" : ""
				}

			}
, 			{
				"box" : 				{
					"id" : "obj-82",
					"maxclass" : "number",
					"numinlets" : 1,
					"numoutlets" : 2,
					"outlettype" : [ "", "bang" ],
					"parameter_enable" : 0,
					"patching_rect" : [ 606.0, 588.0, 50.0, 22.0 ],
					"style" : ""
				}

			}
, 			{
				"box" : 				{
					"format" : 6,
					"id" : "obj-80",
					"maxclass" : "flonum",
					"numinlets" : 1,
					"numoutlets" : 2,
					"outlettype" : [ "", "bang" ],
					"parameter_enable" : 0,
					"patching_rect" : [ 524.0, 577.0, 50.0, 22.0 ],
					"style" : ""
				}

			}
, 			{
				"box" : 				{
					"id" : "obj-78",
					"maxclass" : "number",
					"numinlets" : 1,
					"numoutlets" : 2,
					"outlettype" : [ "", "bang" ],
					"parameter_enable" : 0,
					"patching_rect" : [ 443.0, 577.0, 50.0, 22.0 ],
					"style" : ""
				}

			}
, 			{
				"box" : 				{
					"format" : 6,
					"id" : "obj-76",
					"maxclass" : "flonum",
					"numinlets" : 1,
					"numoutlets" : 2,
					"outlettype" : [ "", "bang" ],
					"parameter_enable" : 0,
					"patching_rect" : [ 350.0, 563.0, 50.0, 22.0 ],
					"style" : ""
				}

			}
, 			{
				"box" : 				{
					"id" : "obj-74",
					"maxclass" : "newobj",
					"numinlets" : 8,
					"numoutlets" : 1,
					"outlettype" : [ "signal" ],
					"patching_rect" : [ 329.0, 616.0, 92.5, 22.0 ],
					"style" : "",
					"text" : "cellosynth~",
					"varname" : "cellosynth~"
				}

			}
, 			{
				"box" : 				{
					"id" : "obj-72",
					"maxclass" : "message",
					"numinlets" : 2,
					"numoutlets" : 1,
					"outlettype" : [ "" ],
					"patching_rect" : [ 190.0, 552.0, 29.5, 22.0 ],
					"style" : "",
					"text" : "1."
				}

			}
, 			{
				"box" : 				{
					"id" : "obj-68",
					"maxclass" : "ezdac~",
					"numinlets" : 2,
					"numoutlets" : 0,
					"patching_rect" : [ 182.25, 654.0, 45.0, 45.0 ],
					"presentation" : 1,
					"presentation_rect" : [ 42.0, 348.0, 45.0, 45.0 ],
					"style" : ""
				}

			}
, 			{
				"box" : 				{
					"id" : "obj-67",
					"maxclass" : "newobj",
					"numinlets" : 2,
					"numoutlets" : 1,
					"outlettype" : [ "signal" ],
					"patching_rect" : [ 97.0, 577.0, 31.0, 22.0 ],
					"style" : "",
					"text" : "kick"
				}

			}
, 			{
				"box" : 				{
					"id" : "obj-66",
					"maxclass" : "newobj",
					"numinlets" : 3,
					"numoutlets" : 2,
					"outlettype" : [ "int", "int" ],
					"patching_rect" : [ 991.0, 520.0, 52.0, 22.0 ],
					"style" : "",
					"text" : "split 0 1"
				}

			}
, 			{
				"box" : 				{
					"id" : "obj-65",
					"maxclass" : "newobj",
					"numinlets" : 3,
					"numoutlets" : 2,
					"outlettype" : [ "int", "int" ],
					"patching_rect" : [ 813.0, 520.0, 52.0, 22.0 ],
					"style" : "",
					"text" : "split 0 1"
				}

			}
, 			{
				"box" : 				{
					"id" : "obj-64",
					"maxclass" : "newobj",
					"numinlets" : 3,
					"numoutlets" : 2,
					"outlettype" : [ "int", "int" ],
					"patching_rect" : [ 665.0, 520.0, 52.0, 22.0 ],
					"style" : "",
					"text" : "split 0 1"
				}

			}
, 			{
				"box" : 				{
					"id" : "obj-63",
					"maxclass" : "newobj",
					"numinlets" : 3,
					"numoutlets" : 2,
					"outlettype" : [ "int", "int" ],
					"patching_rect" : [ 457.0, 520.0, 52.0, 22.0 ],
					"style" : "",
					"text" : "split 0 1"
				}

			}
, 			{
				"box" : 				{
					"id" : "obj-62",
					"maxclass" : "newobj",
					"numinlets" : 3,
					"numoutlets" : 2,
					"outlettype" : [ "int", "int" ],
					"patching_rect" : [ 283.0, 520.0, 52.0, 22.0 ],
					"style" : "",
					"text" : "split 0 1"
				}

			}
, 			{
				"box" : 				{
					"id" : "obj-60",
					"maxclass" : "newobj",
					"numinlets" : 2,
					"numoutlets" : 1,
					"outlettype" : [ "int" ],
					"patching_rect" : [ 782.5, 302.0, 61.0, 22.0 ],
					"style" : "",
					"text" : "random 9"
				}

			}
, 			{
				"box" : 				{
					"id" : "obj-59",
					"maxclass" : "newobj",
					"numinlets" : 2,
					"numoutlets" : 1,
					"outlettype" : [ "int" ],
					"patching_rect" : [ 702.5, 302.0, 61.0, 22.0 ],
					"style" : "",
					"text" : "random 9"
				}

			}
, 			{
				"box" : 				{
					"id" : "obj-58",
					"maxclass" : "newobj",
					"numinlets" : 2,
					"numoutlets" : 1,
					"outlettype" : [ "int" ],
					"patching_rect" : [ 624.0, 302.0, 61.0, 22.0 ],
					"style" : "",
					"text" : "random 9"
				}

			}
, 			{
				"box" : 				{
					"id" : "obj-57",
					"maxclass" : "newobj",
					"numinlets" : 2,
					"numoutlets" : 1,
					"outlettype" : [ "int" ],
					"patching_rect" : [ 548.0, 302.0, 61.0, 22.0 ],
					"style" : "",
					"text" : "random 9"
				}

			}
, 			{
				"box" : 				{
					"id" : "obj-56",
					"maxclass" : "newobj",
					"numinlets" : 2,
					"numoutlets" : 1,
					"outlettype" : [ "int" ],
					"patching_rect" : [ 472.0, 302.0, 61.0, 22.0 ],
					"style" : "",
					"text" : "random 9"
				}

			}
, 			{
				"box" : 				{
					"hint" : "",
					"id" : "obj-55",
					"maxclass" : "itable",
					"name" : "",
					"numinlets" : 2,
					"numoutlets" : 2,
					"outlettype" : [ "int", "bang" ],
					"parameter_enable" : 0,
					"patching_rect" : [ 1024.0, 352.5, 160.0, 145.0 ],
					"range" : 10,
					"size" : 16,
					"style" : "",
					"table_data" : [ 0, 7, 4, 5, 5, 5, 6, 6, 6, 6, 6, 6, 6, 6, 6, 6, 6 ]
				}

			}
, 			{
				"box" : 				{
					"hint" : "",
					"id" : "obj-54",
					"maxclass" : "itable",
					"name" : "",
					"numinlets" : 2,
					"numoutlets" : 2,
					"outlettype" : [ "int", "bang" ],
					"parameter_enable" : 0,
					"patching_rect" : [ 846.0, 352.5, 160.0, 145.0 ],
					"range" : 10,
					"size" : 16,
					"style" : "",
					"table_data" : [ 0, 7, 4, 3, 2, 6, 8, 4, 2, 5, 9, 7, 8, 4, 7, 9, 9 ]
				}

			}
, 			{
				"box" : 				{
					"hint" : "",
					"id" : "obj-53",
					"maxclass" : "itable",
					"name" : "",
					"numinlets" : 2,
					"numoutlets" : 2,
					"outlettype" : [ "int", "bang" ],
					"parameter_enable" : 0,
					"patching_rect" : [ 665.0, 352.5, 160.0, 145.0 ],
					"presentation" : 1,
					"presentation_rect" : [ 615.0, 143.0, 160.0, 145.0 ],
					"range" : 10,
					"size" : 16,
					"style" : "",
					"table_data" : [ 0, 0, 0, 0, 0, 0, 0, 4, 4, 4, 4, 0, 0, 0, 0, 0, 0 ]
				}

			}
, 			{
				"box" : 				{
					"hint" : "",
					"id" : "obj-52",
					"maxclass" : "itable",
					"name" : "",
					"numinlets" : 2,
					"numoutlets" : 2,
					"outlettype" : [ "int", "bang" ],
					"parameter_enable" : 0,
					"patching_rect" : [ 490.0, 352.5, 160.0, 145.0 ],
					"presentation" : 1,
					"presentation_rect" : [ 216.0, 145.5, 160.0, 145.0 ],
					"range" : 10,
					"size" : 16,
					"style" : "",
					"table_data" : [ 0, 0, 0, 0, 0, 9, 9, 0, 0, 0, 0, 9, 9, 0, 0, 0, 0 ]
				}

			}
, 			{
				"box" : 				{
					"hint" : "",
					"id" : "obj-51",
					"maxclass" : "itable",
					"name" : "",
					"numinlets" : 2,
					"numoutlets" : 2,
					"outlettype" : [ "int", "bang" ],
					"parameter_enable" : 0,
					"patching_rect" : [ 316.0, 352.5, 160.0, 145.0 ],
					"presentation" : 1,
					"presentation_rect" : [ 417.0, 143.0, 160.0, 145.0 ],
					"range" : 10,
					"size" : 16,
					"style" : "",
					"table_data" : [ 0, 2, 3, 4, 5, 2, 3, 4, 5, 2, 3, 4, 5, 2, 3, 4, 5 ]
				}

			}
, 			{
				"box" : 				{
					"hint" : "",
					"id" : "obj-28",
					"maxclass" : "itable",
					"name" : "",
					"numinlets" : 2,
					"numoutlets" : 2,
					"outlettype" : [ "int", "bang" ],
					"parameter_enable" : 0,
					"patching_rect" : [ 144.0, 352.5, 160.0, 145.0 ],
					"presentation" : 1,
					"presentation_rect" : [ 49.0, 145.5, 160.0, 145.0 ],
					"range" : 10,
					"size" : 16,
					"style" : "",
					"table_data" : [ 0, 4, 4, 5, 5, 4, 4, 9, 3, 3, 9, 4, 4, 5, 5, 4, 4 ]
				}

			}
, 			{
				"box" : 				{
					"id" : "obj-27",
					"maxclass" : "newobj",
					"numinlets" : 3,
					"numoutlets" : 2,
					"outlettype" : [ "int", "int" ],
					"patching_rect" : [ 111.0, 524.0, 52.0, 22.0 ],
					"style" : "",
					"text" : "split 0 1"
				}

			}
, 			{
				"box" : 				{
					"id" : "obj-15",
					"maxclass" : "newobj",
					"numinlets" : 2,
					"numoutlets" : 1,
					"outlettype" : [ "int" ],
					"patching_rect" : [ 396.0, 302.0, 61.0, 22.0 ],
					"style" : "",
					"text" : "random 9"
				}

			}
, 			{
				"box" : 				{
					"id" : "obj-13",
					"maxclass" : "newobj",
					"numinlets" : 2,
					"numoutlets" : 2,
					"outlettype" : [ "", "" ],
					"patching_rect" : [ 189.0, 174.0, 70.0, 22.0 ],
					"style" : "",
					"text" : "route pulse"
				}

			}
, 			{
				"box" : 				{
					"id" : "obj-12",
					"maxclass" : "toggle",
					"numinlets" : 1,
					"numoutlets" : 1,
					"outlettype" : [ "int" ],
					"parameter_enable" : 0,
					"patching_rect" : [ 144.0, 228.0, 24.0, 24.0 ],
					"presentation" : 1,
					"presentation_rect" : [ 43.0, 36.0, 24.0, 24.0 ],
					"style" : ""
				}

			}
, 			{
				"box" : 				{
					"id" : "obj-11",
					"maxclass" : "newobj",
					"numinlets" : 2,
					"numoutlets" : 2,
					"outlettype" : [ "", "" ],
					"patching_rect" : [ 86.0, 191.0, 74.0, 22.0 ],
					"style" : "",
					"text" : "route toggle"
				}

			}
, 			{
				"box" : 				{
					"id" : "obj-7",
					"maxclass" : "newobj",
					"numinlets" : 5,
					"numoutlets" : 4,
					"outlettype" : [ "int", "", "", "int" ],
					"patching_rect" : [ 144.0, 308.0, 67.0, 22.0 ],
					"style" : "",
					"text" : "counter 16"
				}

			}
, 			{
				"box" : 				{
					"id" : "obj-6",
					"maxclass" : "newobj",
					"numinlets" : 2,
					"numoutlets" : 1,
					"outlettype" : [ "bang" ],
					"patching_rect" : [ 144.0, 269.0, 65.0, 22.0 ],
					"style" : "",
					"text" : "metro 100"
				}

			}
, 			{
				"box" : 				{
					"id" : "obj-3",
					"maxclass" : "newobj",
					"numinlets" : 2,
					"numoutlets" : 2,
					"outlettype" : [ "", "" ],
					"patching_rect" : [ 163.0, 136.0, 78.0, 22.0 ],
					"style" : "",
					"text" : "route rhythm"
				}

			}
, 			{
				"box" : 				{
					"id" : "obj-2",
					"maxclass" : "newobj",
					"numinlets" : 1,
					"numoutlets" : 5,
					"outlettype" : [ "", "", "", "", "" ],
					"patching_rect" : [ 163.0, 97.0, 136.0, 22.0 ],
					"style" : "",
					"text" : "regexp / @substitute \" \""
				}

			}
, 			{
				"box" : 				{
					"id" : "obj-1",
					"maxclass" : "newobj",
					"numinlets" : 1,
					"numoutlets" : 1,
					"outlettype" : [ "" ],
					"patching_rect" : [ 163.0, 55.0, 99.0, 22.0 ],
					"style" : "",
					"text" : "udpreceive 8000"
				}

			}
 ],
		"lines" : [ 			{
				"patchline" : 				{
					"destination" : [ "obj-2", 0 ],
					"disabled" : 0,
					"hidden" : 0,
					"source" : [ "obj-1", 0 ]
				}

			}
, 			{
				"patchline" : 				{
					"destination" : [ "obj-20", 0 ],
					"disabled" : 0,
					"hidden" : 0,
					"source" : [ "obj-10", 0 ]
				}

			}
, 			{
				"patchline" : 				{
					"destination" : [ "obj-12", 0 ],
					"disabled" : 0,
					"hidden" : 0,
					"source" : [ "obj-11", 0 ]
				}

			}
, 			{
				"patchline" : 				{
					"destination" : [ "obj-6", 0 ],
					"disabled" : 0,
					"hidden" : 0,
					"source" : [ "obj-12", 0 ]
				}

			}
, 			{
				"patchline" : 				{
					"destination" : [ "obj-44", 1 ],
					"disabled" : 0,
					"hidden" : 0,
					"source" : [ "obj-13", 0 ]
				}

			}
, 			{
				"patchline" : 				{
					"destination" : [ "obj-10", 2 ],
					"disabled" : 0,
					"hidden" : 0,
					"source" : [ "obj-14", 0 ]
				}

			}
, 			{
				"patchline" : 				{
					"destination" : [ "obj-4", 2 ],
					"disabled" : 0,
					"hidden" : 0,
					"source" : [ "obj-14", 0 ]
				}

			}
, 			{
				"patchline" : 				{
					"destination" : [ "obj-74", 2 ],
					"disabled" : 0,
					"hidden" : 0,
					"source" : [ "obj-14", 0 ]
				}

			}
, 			{
				"patchline" : 				{
					"destination" : [ "obj-27", 0 ],
					"disabled" : 0,
					"hidden" : 0,
					"source" : [ "obj-15", 0 ]
				}

			}
, 			{
				"patchline" : 				{
					"destination" : [ "obj-9", 0 ],
					"disabled" : 0,
					"hidden" : 0,
					"source" : [ "obj-16", 0 ]
				}

			}
, 			{
				"patchline" : 				{
					"destination" : [ "obj-10", 3 ],
					"disabled" : 0,
					"hidden" : 0,
					"source" : [ "obj-17", 0 ]
				}

			}
, 			{
				"patchline" : 				{
					"destination" : [ "obj-4", 3 ],
					"disabled" : 0,
					"hidden" : 0,
					"source" : [ "obj-17", 0 ]
				}

			}
, 			{
				"patchline" : 				{
					"destination" : [ "obj-74", 3 ],
					"disabled" : 0,
					"hidden" : 0,
					"source" : [ "obj-17", 0 ]
				}

			}
, 			{
				"patchline" : 				{
					"destination" : [ "obj-88", 0 ],
					"disabled" : 0,
					"hidden" : 0,
					"source" : [ "obj-18", 0 ]
				}

			}
, 			{
				"patchline" : 				{
					"destination" : [ "obj-74", 4 ],
					"disabled" : 0,
					"hidden" : 0,
					"source" : [ "obj-19", 0 ]
				}

			}
, 			{
				"patchline" : 				{
					"destination" : [ "obj-3", 0 ],
					"disabled" : 0,
					"hidden" : 0,
					"source" : [ "obj-2", 0 ]
				}

			}
, 			{
				"patchline" : 				{
					"destination" : [ "obj-88", 0 ],
					"disabled" : 0,
					"hidden" : 0,
					"source" : [ "obj-20", 0 ]
				}

			}
, 			{
				"patchline" : 				{
					"destination" : [ "obj-10", 4 ],
					"disabled" : 0,
					"hidden" : 0,
					"source" : [ "obj-21", 0 ]
				}

			}
, 			{
				"patchline" : 				{
					"destination" : [ "obj-4", 4 ],
					"disabled" : 0,
					"hidden" : 0,
					"source" : [ "obj-21", 0 ]
				}

			}
, 			{
				"patchline" : 				{
					"destination" : [ "obj-74", 5 ],
					"disabled" : 0,
					"hidden" : 0,
					"source" : [ "obj-21", 0 ]
				}

			}
, 			{
				"patchline" : 				{
					"destination" : [ "obj-28", 0 ],
					"disabled" : 0,
					"hidden" : 0,
					"source" : [ "obj-22", 0 ]
				}

			}
, 			{
				"patchline" : 				{
					"destination" : [ "obj-29", 0 ],
					"disabled" : 0,
					"hidden" : 0,
					"source" : [ "obj-22", 0 ]
				}

			}
, 			{
				"patchline" : 				{
					"destination" : [ "obj-30", 0 ],
					"disabled" : 0,
					"hidden" : 0,
					"source" : [ "obj-22", 0 ]
				}

			}
, 			{
				"patchline" : 				{
					"destination" : [ "obj-51", 0 ],
					"disabled" : 0,
					"hidden" : 0,
					"source" : [ "obj-22", 0 ]
				}

			}
, 			{
				"patchline" : 				{
					"destination" : [ "obj-52", 0 ],
					"disabled" : 0,
					"hidden" : 0,
					"source" : [ "obj-22", 0 ]
				}

			}
, 			{
				"patchline" : 				{
					"destination" : [ "obj-53", 0 ],
					"disabled" : 0,
					"hidden" : 0,
					"source" : [ "obj-22", 0 ]
				}

			}
, 			{
				"patchline" : 				{
					"destination" : [ "obj-10", 5 ],
					"disabled" : 0,
					"hidden" : 0,
					"source" : [ "obj-23", 0 ]
				}

			}
, 			{
				"patchline" : 				{
					"destination" : [ "obj-4", 5 ],
					"disabled" : 0,
					"hidden" : 0,
					"source" : [ "obj-23", 0 ]
				}

			}
, 			{
				"patchline" : 				{
					"destination" : [ "obj-74", 6 ],
					"disabled" : 0,
					"hidden" : 0,
					"source" : [ "obj-23", 0 ]
				}

			}
, 			{
				"patchline" : 				{
					"destination" : [ "obj-33", 0 ],
					"disabled" : 0,
					"hidden" : 0,
					"source" : [ "obj-24", 0 ]
				}

			}
, 			{
				"patchline" : 				{
					"destination" : [ "obj-10", 6 ],
					"disabled" : 0,
					"hidden" : 0,
					"source" : [ "obj-25", 0 ]
				}

			}
, 			{
				"patchline" : 				{
					"destination" : [ "obj-4", 6 ],
					"disabled" : 0,
					"hidden" : 0,
					"source" : [ "obj-25", 0 ]
				}

			}
, 			{
				"patchline" : 				{
					"destination" : [ "obj-74", 7 ],
					"disabled" : 0,
					"hidden" : 0,
					"source" : [ "obj-25", 0 ]
				}

			}
, 			{
				"patchline" : 				{
					"destination" : [ "obj-10", 2 ],
					"disabled" : 0,
					"hidden" : 0,
					"source" : [ "obj-26", 0 ]
				}

			}
, 			{
				"patchline" : 				{
					"destination" : [ "obj-67", 0 ],
					"disabled" : 0,
					"hidden" : 0,
					"source" : [ "obj-27", 0 ]
				}

			}
, 			{
				"patchline" : 				{
					"destination" : [ "obj-27", 2 ],
					"disabled" : 0,
					"hidden" : 0,
					"source" : [ "obj-28", 0 ]
				}

			}
, 			{
				"patchline" : 				{
					"destination" : [ "obj-26", 0 ],
					"disabled" : 0,
					"hidden" : 0,
					"source" : [ "obj-29", 0 ]
				}

			}
, 			{
				"patchline" : 				{
					"destination" : [ "obj-11", 0 ],
					"disabled" : 0,
					"hidden" : 0,
					"source" : [ "obj-3", 0 ]
				}

			}
, 			{
				"patchline" : 				{
					"destination" : [ "obj-13", 0 ],
					"disabled" : 0,
					"hidden" : 0,
					"source" : [ "obj-3", 0 ]
				}

			}
, 			{
				"patchline" : 				{
					"destination" : [ "obj-74", 2 ],
					"disabled" : 0,
					"hidden" : 0,
					"source" : [ "obj-30", 0 ]
				}

			}
, 			{
				"patchline" : 				{
					"destination" : [ "obj-35", 0 ],
					"disabled" : 0,
					"hidden" : 0,
					"source" : [ "obj-33", 0 ]
				}

			}
, 			{
				"patchline" : 				{
					"destination" : [ "obj-8", 0 ],
					"disabled" : 0,
					"hidden" : 0,
					"source" : [ "obj-35", 0 ]
				}

			}
, 			{
				"patchline" : 				{
					"destination" : [ "obj-37", 1 ],
					"disabled" : 0,
					"hidden" : 0,
					"source" : [ "obj-39", 0 ]
				}

			}
, 			{
				"patchline" : 				{
					"destination" : [ "obj-41", 0 ],
					"disabled" : 0,
					"hidden" : 0,
					"source" : [ "obj-39", 0 ]
				}

			}
, 			{
				"patchline" : 				{
					"destination" : [ "obj-18", 0 ],
					"disabled" : 0,
					"hidden" : 0,
					"source" : [ "obj-4", 0 ]
				}

			}
, 			{
				"patchline" : 				{
					"destination" : [ "obj-12", 0 ],
					"disabled" : 0,
					"hidden" : 0,
					"source" : [ "obj-41", 0 ]
				}

			}
, 			{
				"patchline" : 				{
					"destination" : [ "obj-42", 0 ],
					"disabled" : 0,
					"hidden" : 0,
					"source" : [ "obj-41", 1 ]
				}

			}
, 			{
				"patchline" : 				{
					"destination" : [ "obj-44", 0 ],
					"disabled" : 0,
					"hidden" : 0,
					"source" : [ "obj-42", 0 ]
				}

			}
, 			{
				"patchline" : 				{
					"destination" : [ "obj-5", 0 ],
					"disabled" : 0,
					"hidden" : 0,
					"source" : [ "obj-44", 0 ]
				}

			}
, 			{
				"patchline" : 				{
					"destination" : [ "obj-35", 4 ],
					"disabled" : 0,
					"hidden" : 0,
					"source" : [ "obj-5", 0 ]
				}

			}
, 			{
				"patchline" : 				{
					"destination" : [ "obj-8", 0 ],
					"disabled" : 0,
					"hidden" : 0,
					"source" : [ "obj-5", 0 ]
				}

			}
, 			{
				"patchline" : 				{
					"destination" : [ "obj-62", 2 ],
					"disabled" : 0,
					"hidden" : 0,
					"source" : [ "obj-51", 0 ]
				}

			}
, 			{
				"patchline" : 				{
					"destination" : [ "obj-63", 2 ],
					"disabled" : 0,
					"hidden" : 0,
					"source" : [ "obj-52", 0 ]
				}

			}
, 			{
				"patchline" : 				{
					"destination" : [ "obj-64", 2 ],
					"disabled" : 0,
					"hidden" : 0,
					"source" : [ "obj-53", 0 ]
				}

			}
, 			{
				"patchline" : 				{
					"destination" : [ "obj-65", 2 ],
					"disabled" : 0,
					"hidden" : 0,
					"source" : [ "obj-54", 0 ]
				}

			}
, 			{
				"patchline" : 				{
					"destination" : [ "obj-66", 2 ],
					"disabled" : 0,
					"hidden" : 0,
					"source" : [ "obj-55", 0 ]
				}

			}
, 			{
				"patchline" : 				{
					"destination" : [ "obj-62", 0 ],
					"disabled" : 0,
					"hidden" : 0,
					"source" : [ "obj-56", 0 ]
				}

			}
, 			{
				"patchline" : 				{
					"destination" : [ "obj-63", 0 ],
					"disabled" : 0,
					"hidden" : 0,
					"source" : [ "obj-57", 0 ]
				}

			}
, 			{
				"patchline" : 				{
					"destination" : [ "obj-64", 0 ],
					"disabled" : 0,
					"hidden" : 0,
					"source" : [ "obj-58", 0 ]
				}

			}
, 			{
				"patchline" : 				{
					"destination" : [ "obj-15", 0 ],
					"disabled" : 0,
					"hidden" : 0,
					"source" : [ "obj-6", 0 ]
				}

			}
, 			{
				"patchline" : 				{
					"destination" : [ "obj-56", 0 ],
					"disabled" : 0,
					"hidden" : 0,
					"source" : [ "obj-6", 0 ]
				}

			}
, 			{
				"patchline" : 				{
					"destination" : [ "obj-57", 0 ],
					"disabled" : 0,
					"hidden" : 0,
					"source" : [ "obj-6", 0 ]
				}

			}
, 			{
				"patchline" : 				{
					"destination" : [ "obj-58", 0 ],
					"disabled" : 0,
					"hidden" : 0,
					"source" : [ "obj-6", 0 ]
				}

			}
, 			{
				"patchline" : 				{
					"destination" : [ "obj-59", 0 ],
					"disabled" : 0,
					"hidden" : 0,
					"source" : [ "obj-6", 0 ]
				}

			}
, 			{
				"patchline" : 				{
					"destination" : [ "obj-60", 0 ],
					"disabled" : 0,
					"hidden" : 0,
					"source" : [ "obj-6", 0 ]
				}

			}
, 			{
				"patchline" : 				{
					"destination" : [ "obj-7", 0 ],
					"disabled" : 0,
					"hidden" : 0,
					"source" : [ "obj-6", 0 ]
				}

			}
, 			{
				"patchline" : 				{
					"destination" : [ "obj-74", 1 ],
					"disabled" : 0,
					"hidden" : 0,
					"source" : [ "obj-62", 0 ]
				}

			}
, 			{
				"patchline" : 				{
					"destination" : [ "obj-87", 0 ],
					"disabled" : 0,
					"hidden" : 0,
					"source" : [ "obj-62", 0 ]
				}

			}
, 			{
				"patchline" : 				{
					"destination" : [ "obj-4", 1 ],
					"disabled" : 0,
					"hidden" : 0,
					"source" : [ "obj-63", 0 ]
				}

			}
, 			{
				"patchline" : 				{
					"destination" : [ "obj-10", 1 ],
					"disabled" : 0,
					"hidden" : 0,
					"source" : [ "obj-64", 0 ]
				}

			}
, 			{
				"patchline" : 				{
					"destination" : [ "obj-31", 0 ],
					"disabled" : 0,
					"hidden" : 0,
					"source" : [ "obj-64", 0 ]
				}

			}
, 			{
				"patchline" : 				{
					"destination" : [ "obj-90", 0 ],
					"disabled" : 0,
					"hidden" : 0,
					"source" : [ "obj-67", 0 ]
				}

			}
, 			{
				"patchline" : 				{
					"destination" : [ "obj-28", 0 ],
					"disabled" : 0,
					"hidden" : 0,
					"source" : [ "obj-7", 0 ]
				}

			}
, 			{
				"patchline" : 				{
					"destination" : [ "obj-51", 0 ],
					"disabled" : 0,
					"hidden" : 0,
					"source" : [ "obj-7", 0 ]
				}

			}
, 			{
				"patchline" : 				{
					"destination" : [ "obj-52", 0 ],
					"disabled" : 0,
					"hidden" : 0,
					"source" : [ "obj-7", 0 ]
				}

			}
, 			{
				"patchline" : 				{
					"destination" : [ "obj-53", 0 ],
					"disabled" : 0,
					"hidden" : 0,
					"source" : [ "obj-7", 0 ]
				}

			}
, 			{
				"patchline" : 				{
					"destination" : [ "obj-67", 1 ],
					"disabled" : 0,
					"hidden" : 0,
					"source" : [ "obj-72", 0 ]
				}

			}
, 			{
				"patchline" : 				{
					"destination" : [ "obj-89", 0 ],
					"disabled" : 0,
					"hidden" : 0,
					"source" : [ "obj-74", 0 ]
				}

			}
, 			{
				"patchline" : 				{
					"destination" : [ "obj-74", 2 ],
					"disabled" : 0,
					"hidden" : 0,
					"source" : [ "obj-76", 0 ]
				}

			}
, 			{
				"patchline" : 				{
					"destination" : [ "obj-74", 3 ],
					"disabled" : 0,
					"hidden" : 0,
					"source" : [ "obj-78", 0 ]
				}

			}
, 			{
				"patchline" : 				{
					"destination" : [ "obj-6", 1 ],
					"disabled" : 0,
					"hidden" : 0,
					"source" : [ "obj-8", 0 ]
				}

			}
, 			{
				"patchline" : 				{
					"destination" : [ "obj-74", 4 ],
					"disabled" : 0,
					"hidden" : 0,
					"source" : [ "obj-80", 0 ]
				}

			}
, 			{
				"patchline" : 				{
					"destination" : [ "obj-74", 5 ],
					"disabled" : 0,
					"hidden" : 0,
					"source" : [ "obj-82", 0 ]
				}

			}
, 			{
				"patchline" : 				{
					"destination" : [ "obj-74", 6 ],
					"disabled" : 0,
					"hidden" : 0,
					"source" : [ "obj-84", 0 ]
				}

			}
, 			{
				"patchline" : 				{
					"destination" : [ "obj-74", 7 ],
					"disabled" : 0,
					"hidden" : 0,
					"source" : [ "obj-86", 0 ]
				}

			}
, 			{
				"patchline" : 				{
					"destination" : [ "obj-68", 1 ],
					"disabled" : 0,
					"hidden" : 0,
					"source" : [ "obj-88", 0 ]
				}

			}
, 			{
				"patchline" : 				{
					"destination" : [ "obj-68", 0 ],
					"disabled" : 0,
					"hidden" : 0,
					"source" : [ "obj-88", 0 ]
				}

			}
, 			{
				"patchline" : 				{
					"destination" : [ "obj-88", 0 ],
					"disabled" : 0,
					"hidden" : 0,
					"source" : [ "obj-89", 0 ]
				}

			}
, 			{
				"patchline" : 				{
					"destination" : [ "obj-14", 0 ],
					"disabled" : 0,
					"hidden" : 0,
					"source" : [ "obj-9", 0 ]
				}

			}
, 			{
				"patchline" : 				{
					"destination" : [ "obj-17", 0 ],
					"disabled" : 0,
					"hidden" : 0,
					"source" : [ "obj-9", 0 ]
				}

			}
, 			{
				"patchline" : 				{
					"destination" : [ "obj-19", 0 ],
					"disabled" : 0,
					"hidden" : 0,
					"source" : [ "obj-9", 0 ]
				}

			}
, 			{
				"patchline" : 				{
					"destination" : [ "obj-21", 0 ],
					"disabled" : 0,
					"hidden" : 0,
					"source" : [ "obj-9", 0 ]
				}

			}
, 			{
				"patchline" : 				{
					"destination" : [ "obj-23", 0 ],
					"disabled" : 0,
					"hidden" : 0,
					"source" : [ "obj-9", 0 ]
				}

			}
, 			{
				"patchline" : 				{
					"destination" : [ "obj-25", 0 ],
					"disabled" : 0,
					"hidden" : 0,
					"source" : [ "obj-9", 0 ]
				}

			}
, 			{
				"patchline" : 				{
					"destination" : [ "obj-72", 0 ],
					"disabled" : 0,
					"hidden" : 0,
					"source" : [ "obj-9", 0 ]
				}

			}
, 			{
				"patchline" : 				{
					"destination" : [ "obj-88", 0 ],
					"disabled" : 0,
					"hidden" : 0,
					"source" : [ "obj-90", 0 ]
				}

			}
 ],
		"parameters" : 		{
			"obj-74::obj-1::obj-25" : [ "CV[4]", "CV", 0 ],
			"obj-4::obj-1::obj-71" : [ "Pan[1]", "Pan", 0 ],
			"obj-74::obj-1::obj-3" : [ "Position[4]", "Position", 0 ],
			"obj-4::obj-1::obj-45" : [ "DurationRandomAmt[1]", "Random", 0 ],
			"obj-10::obj-1::obj-45" : [ "DurationRandomAmt[2]", "Random", 0 ],
			"obj-10::obj-1::obj-28" : [ "Offset[3]", "Offset", 0 ],
			"obj-10::obj-1::obj-47" : [ "Duration[2]", "Duration", 0 ],
			"obj-74::obj-1::obj-47" : [ "Duration[4]", "Duration", 0 ],
			"obj-4::obj-1::obj-3" : [ "Position[1]", "Position", 0 ],
			"obj-10::obj-1::obj-71" : [ "Pan[2]", "Pan", 0 ],
			"obj-74::obj-1::obj-12" : [ "Mute[1]", "Mute", 0 ],
			"obj-74::obj-1::obj-114" : [ "MaxGrains[1]", "MaxGrains", 0 ],
			"obj-4::obj-1::obj-114" : [ "MaxGrains[2]", "MaxGrains", 0 ],
			"obj-10::obj-1::obj-114" : [ "MaxGrains[3]", "MaxGrains", 0 ],
			"obj-10::obj-1::obj-115" : [ "NewGrainEvery[3]", "NewGrainEvery", 0 ],
			"obj-10::obj-1::obj-25" : [ "CV[2]", "CV", 0 ],
			"obj-74::obj-1::obj-115" : [ "NewGrainEvery[1]", "NewGrainEvery", 0 ],
			"obj-4::obj-1::obj-58" : [ "PanRandomAmt[1]", "Random", 0 ],
			"obj-4::obj-1::obj-28" : [ "Offset[2]", "Offset", 0 ],
			"obj-74::obj-1::obj-19" : [ "CV2[1]", "CV2", 0 ],
			"obj-10::obj-1::obj-12" : [ "Mute[3]", "Mute", 0 ],
			"obj-74::obj-1::obj-28" : [ "Offset[1]", "Offset", 0 ],
			"obj-10::obj-1::obj-3" : [ "Position[2]", "Position", 0 ],
			"obj-74::obj-1::obj-98::obj-2" : [ "pastebang", "pastebang", 0 ],
			"obj-74::obj-1::obj-94" : [ "PitchRandomAmt[4]", "Random", 0 ],
			"obj-74::obj-1::obj-58" : [ "PanRandomAmt[4]", "Random", 0 ],
			"obj-4::obj-1::obj-115" : [ "NewGrainEvery[2]", "NewGrainEvery", 0 ],
			"obj-74::obj-1::obj-71" : [ "Pan[4]", "Pan", 0 ],
			"obj-4::obj-1::obj-47" : [ "Duration[1]", "Duration", 0 ],
			"obj-10::obj-1::obj-94" : [ "PitchRandomAmt[5]", "Random", 0 ],
			"obj-74::obj-1::obj-45" : [ "DurationRandomAmt[4]", "Random", 0 ],
			"obj-4::obj-1::obj-25" : [ "CV[1]", "CV", 0 ],
			"obj-4::obj-1::obj-101" : [ "Width[1]", "Width", 0 ],
			"obj-4::obj-1::obj-94" : [ "PitchRandomAmt[1]", "Random", 0 ],
			"obj-10::obj-1::obj-58" : [ "PanRandomAmt[2]", "Random", 0 ],
			"obj-4::obj-1::obj-19" : [ "CV2[2]", "CV2", 0 ],
			"obj-4::obj-1::obj-12" : [ "Mute[2]", "Mute", 0 ],
			"obj-10::obj-1::obj-19" : [ "CV2[3]", "CV2", 0 ],
			"obj-10::obj-1::obj-98::obj-2" : [ "pastebang[2]", "pastebang", 0 ],
			"obj-74::obj-1::obj-101" : [ "Width[4]", "Width", 0 ],
			"obj-4::obj-1::obj-98::obj-2" : [ "pastebang[1]", "pastebang", 0 ],
			"obj-10::obj-1::obj-101" : [ "Width[5]", "Width", 0 ]
		}
,
		"dependency_cache" : [ 			{
				"name" : "kick.maxpat",
				"bootpath" : "C:/Users/rsvitale/lork/repertoire/ryan/v1.2",
				"type" : "JSON",
				"implicit" : 1
			}
, 			{
				"name" : "cellosynth~.maxpat",
				"bootpath" : "C:/Users/rsvitale/lork/repertoire/ryan/v1.2",
				"type" : "JSON",
				"implicit" : 1
			}
, 			{
				"name" : "bp.rgrain.maxpat",
				"bootpath" : "C74:/packages/Beap/misc",
				"type" : "JSON",
				"implicit" : 1
			}
, 			{
				"name" : "rchoosef.maxpat",
				"bootpath" : "C74:/packages/Beap/misc",
				"type" : "JSON",
				"implicit" : 1
			}
, 			{
				"name" : "rchoose.maxpat",
				"bootpath" : "C:/ProgramData/Max 7/examples/sampling/granular/lib",
				"type" : "JSON",
				"implicit" : 1
			}
, 			{
				"name" : "transratio.maxpat",
				"bootpath" : "C:/ProgramData/Max 7/examples/max-tricks/notes-and-pitch/pitch-to-freq-ratio",
				"type" : "JSON",
				"implicit" : 1
			}
, 			{
				"name" : "pastebang.maxpat",
				"bootpath" : "C74:/packages/Beap/misc",
				"type" : "JSON",
				"implicit" : 1
			}
, 			{
				"name" : "bp.arc.accum-2.maxpat",
				"bootpath" : "C74:/packages/Beap/misc",
				"type" : "JSON",
				"implicit" : 1
			}
, 			{
				"name" : "bp.arc.knob.maxpat",
				"bootpath" : "C74:/packages/Beap/misc",
				"type" : "JSON",
				"implicit" : 1
			}
, 			{
				"name" : "clapsynth~.maxpat",
				"bootpath" : "C:/Users/rsvitale/lork/repertoire/ryan/v1.2",
				"type" : "JSON",
				"implicit" : 1
			}
, 			{
				"name" : "warbsynth~.maxpat",
				"bootpath" : "C:/Users/rsvitale/lork/repertoire/ryan/v1.2",
				"type" : "JSON",
				"implicit" : 1
			}
 ],
		"autosave" : 0
	}

}
